%TF.GenerationSoftware,KiCad,Pcbnew,(5.1.10)-1*%
%TF.CreationDate,2021-12-27T15:37:09-03:00*%
%TF.ProjectId,pwr_supply,7077725f-7375-4707-906c-792e6b696361,rev?*%
%TF.SameCoordinates,Original*%
%TF.FileFunction,Legend,Bot*%
%TF.FilePolarity,Positive*%
%FSLAX46Y46*%
G04 Gerber Fmt 4.6, Leading zero omitted, Abs format (unit mm)*
G04 Created by KiCad (PCBNEW (5.1.10)-1) date 2021-12-27 15:37:09*
%MOMM*%
%LPD*%
G01*
G04 APERTURE LIST*
%ADD10C,0.010000*%
%ADD11C,0.120000*%
%ADD12C,0.150000*%
G04 APERTURE END LIST*
D10*
%TO.C,G\u002A\u002A\u002A*%
G36*
X134750278Y-66373152D02*
G01*
X134689484Y-66304002D01*
X134598385Y-66270483D01*
X134567725Y-66268600D01*
X134543686Y-66270835D01*
X134516959Y-66279708D01*
X134483900Y-66298469D01*
X134440864Y-66330371D01*
X134384209Y-66378666D01*
X134310289Y-66446603D01*
X134215461Y-66537435D01*
X134096082Y-66654414D01*
X133948506Y-66800791D01*
X133769090Y-66979817D01*
X133756006Y-66992895D01*
X133031389Y-67717189D01*
X132750050Y-67455338D01*
X132193982Y-66959751D01*
X131630494Y-66500590D01*
X131062001Y-66079207D01*
X130490919Y-65696959D01*
X129919665Y-65355200D01*
X129350655Y-65055284D01*
X128786306Y-64798566D01*
X128229033Y-64586401D01*
X127681252Y-64420143D01*
X127145381Y-64301148D01*
X127114300Y-64295652D01*
X126977313Y-64276074D01*
X126821657Y-64262599D01*
X126637338Y-64254636D01*
X126414359Y-64251599D01*
X126365000Y-64251530D01*
X126130051Y-64254513D01*
X125933472Y-64264537D01*
X125763105Y-64283435D01*
X125606787Y-64313039D01*
X125452358Y-64355180D01*
X125287657Y-64411692D01*
X125277976Y-64415284D01*
X124973939Y-64554371D01*
X124701272Y-64732808D01*
X124461379Y-64948927D01*
X124255660Y-65201058D01*
X124085516Y-65487535D01*
X123952351Y-65806688D01*
X123872537Y-66088090D01*
X123845304Y-66244836D01*
X123825436Y-66437938D01*
X123813316Y-66653434D01*
X123809329Y-66877362D01*
X123813858Y-67095761D01*
X123827286Y-67294668D01*
X123837058Y-67379516D01*
X123911314Y-67816288D01*
X124017000Y-68249717D01*
X124095435Y-68510637D01*
X124147869Y-68615343D01*
X124220985Y-68681094D01*
X124306748Y-68704783D01*
X124397120Y-68683301D01*
X124449870Y-68647733D01*
X124486161Y-68609923D01*
X124507534Y-68566057D01*
X124513788Y-68507757D01*
X124504724Y-68426644D01*
X124480142Y-68314338D01*
X124439843Y-68162460D01*
X124438170Y-68156413D01*
X124372230Y-67907766D01*
X124322564Y-67692205D01*
X124287117Y-67495440D01*
X124263835Y-67303178D01*
X124250662Y-67101129D01*
X124245545Y-66875001D01*
X124245286Y-66814700D01*
X124245700Y-66637389D01*
X124248112Y-66500360D01*
X124253382Y-66393111D01*
X124262372Y-66305136D01*
X124275944Y-66225932D01*
X124294957Y-66144994D01*
X124302550Y-66116200D01*
X124405191Y-65810742D01*
X124539403Y-65544159D01*
X124706974Y-65314169D01*
X124909694Y-65118492D01*
X125149353Y-64954846D01*
X125260100Y-64895788D01*
X125405545Y-64827575D01*
X125538639Y-64775345D01*
X125669962Y-64737091D01*
X125810090Y-64710805D01*
X125969602Y-64694480D01*
X126159075Y-64686108D01*
X126377700Y-64683691D01*
X126560496Y-64684101D01*
X126704487Y-64686486D01*
X126821661Y-64691834D01*
X126924002Y-64701136D01*
X127023499Y-64715379D01*
X127132136Y-64735553D01*
X127215900Y-64752859D01*
X127772605Y-64894168D01*
X128337722Y-65084121D01*
X128909356Y-65321620D01*
X129485610Y-65605565D01*
X130064585Y-65934860D01*
X130644386Y-66308405D01*
X131223116Y-66725101D01*
X131798877Y-67183851D01*
X132369772Y-67683555D01*
X132524500Y-67826917D01*
X132727700Y-68017456D01*
X132440920Y-68307428D01*
X132162885Y-68054925D01*
X131643180Y-67608022D01*
X131117551Y-67205516D01*
X130587917Y-66848592D01*
X130056197Y-66538432D01*
X129524310Y-66276221D01*
X128994176Y-66063140D01*
X128854200Y-66015049D01*
X128612400Y-65937690D01*
X128404254Y-65878342D01*
X128216804Y-65834821D01*
X128037090Y-65804943D01*
X127852155Y-65786522D01*
X127649039Y-65777376D01*
X127431800Y-65775279D01*
X127257988Y-65775968D01*
X127124885Y-65778028D01*
X127022398Y-65782448D01*
X126940439Y-65790218D01*
X126868917Y-65802326D01*
X126797741Y-65819762D01*
X126716821Y-65843515D01*
X126707900Y-65846246D01*
X126439215Y-65946003D01*
X126205549Y-66071710D01*
X125994896Y-66230112D01*
X125945891Y-66274243D01*
X125742392Y-66494193D01*
X125580130Y-66738178D01*
X125458217Y-67008485D01*
X125375761Y-67307406D01*
X125331872Y-67637230D01*
X125323600Y-67875218D01*
X125333893Y-68135800D01*
X125362749Y-68413376D01*
X125407130Y-68684261D01*
X125452986Y-68884800D01*
X125500652Y-69053378D01*
X125553308Y-69221869D01*
X125607841Y-69381840D01*
X125661137Y-69524859D01*
X125710079Y-69642491D01*
X125751555Y-69726304D01*
X125777530Y-69763603D01*
X125860427Y-69814573D01*
X125952956Y-69818508D01*
X126030752Y-69783937D01*
X126076545Y-69746575D01*
X126105407Y-69705221D01*
X126117069Y-69652145D01*
X126111262Y-69579620D01*
X126087720Y-69479916D01*
X126046173Y-69345305D01*
X126011979Y-69243063D01*
X125929945Y-68990303D01*
X125867631Y-68769367D01*
X125822342Y-68566489D01*
X125791385Y-68367905D01*
X125772068Y-68159850D01*
X125762953Y-67970400D01*
X125758656Y-67808893D01*
X125758442Y-67684951D01*
X125763177Y-67585442D01*
X125773728Y-67497234D01*
X125790961Y-67407193D01*
X125803801Y-67351295D01*
X125884297Y-67101037D01*
X125998980Y-66873376D01*
X126143139Y-66675028D01*
X126312060Y-66512708D01*
X126461951Y-66413257D01*
X126634582Y-66328656D01*
X126801952Y-66268587D01*
X126979667Y-66229093D01*
X127183333Y-66206217D01*
X127304800Y-66199571D01*
X127569183Y-66196444D01*
X127812704Y-66211091D01*
X128055540Y-66245745D01*
X128317869Y-66302641D01*
X128381985Y-66318825D01*
X128796281Y-66445424D01*
X129226831Y-66614410D01*
X129667916Y-66822368D01*
X130113819Y-67065884D01*
X130558822Y-67341542D01*
X130997206Y-67645926D01*
X131423256Y-67975622D01*
X131831251Y-68327213D01*
X131986925Y-68472084D01*
X132135150Y-68613146D01*
X131879353Y-68868943D01*
X131681227Y-68691777D01*
X131297520Y-68366364D01*
X130911416Y-68073259D01*
X130525464Y-67813319D01*
X130142217Y-67587404D01*
X129764225Y-67396370D01*
X129394038Y-67241076D01*
X129034208Y-67122380D01*
X128687285Y-67041139D01*
X128355820Y-66998212D01*
X128042364Y-66994456D01*
X127749468Y-67030729D01*
X127479682Y-67107889D01*
X127268160Y-67207566D01*
X127056314Y-67355898D01*
X126882473Y-67534978D01*
X126746078Y-67742483D01*
X126646572Y-67976089D01*
X126583400Y-68233474D01*
X126556004Y-68512313D01*
X126563826Y-68810284D01*
X126606311Y-69125063D01*
X126682901Y-69454327D01*
X126793039Y-69795753D01*
X126936168Y-70147016D01*
X127111731Y-70505795D01*
X127319172Y-70869766D01*
X127557933Y-71236604D01*
X127827457Y-71603988D01*
X128127188Y-71969594D01*
X128456569Y-72331097D01*
X128509504Y-72385857D01*
X128866757Y-72733484D01*
X129232570Y-73052933D01*
X129604183Y-73343132D01*
X129978836Y-73603005D01*
X130353769Y-73831480D01*
X130726223Y-74027481D01*
X131093437Y-74189936D01*
X131452652Y-74317770D01*
X131801108Y-74409908D01*
X132136046Y-74465279D01*
X132416941Y-74480728D01*
X132416941Y-74050273D01*
X132246788Y-74044397D01*
X132084344Y-74030528D01*
X131944044Y-74008868D01*
X131927600Y-74005361D01*
X131565274Y-73904837D01*
X131186689Y-73761816D01*
X130797906Y-73579436D01*
X130404986Y-73360833D01*
X130013989Y-73109145D01*
X129630978Y-72827509D01*
X129590800Y-72795795D01*
X129453497Y-72680609D01*
X129291891Y-72535154D01*
X129114493Y-72367938D01*
X128929814Y-72187474D01*
X128746364Y-72002270D01*
X128572654Y-71820839D01*
X128417194Y-71651689D01*
X128288494Y-71503333D01*
X128245206Y-71450200D01*
X127999851Y-71123201D01*
X127773973Y-70785686D01*
X127570806Y-70444054D01*
X127393584Y-70104702D01*
X127245538Y-69774029D01*
X127129903Y-69458431D01*
X127049911Y-69164307D01*
X127025848Y-69037200D01*
X127009920Y-68939946D01*
X126996032Y-68859527D01*
X126986902Y-68811609D01*
X126986210Y-68808600D01*
X126980804Y-68748915D01*
X126981723Y-68653594D01*
X126987843Y-68537251D01*
X126998035Y-68414501D01*
X127011174Y-68299958D01*
X127026132Y-68208236D01*
X127035401Y-68170590D01*
X127125163Y-67953517D01*
X127249028Y-67773607D01*
X127408407Y-67629506D01*
X127604708Y-67519861D01*
X127774700Y-67460072D01*
X127881368Y-67440761D01*
X128023633Y-67430047D01*
X128187060Y-67427728D01*
X128357213Y-67433604D01*
X128519657Y-67447473D01*
X128659957Y-67469133D01*
X128676400Y-67472640D01*
X129026492Y-67569269D01*
X129393999Y-67706263D01*
X129770923Y-67879999D01*
X130149264Y-68086855D01*
X130451532Y-68276377D01*
X130668770Y-68426621D01*
X130890763Y-68590684D01*
X131105258Y-68758951D01*
X131300004Y-68921808D01*
X131462749Y-69069641D01*
X131464145Y-69070984D01*
X131572190Y-69174963D01*
X131452400Y-69296582D01*
X131389254Y-69358083D01*
X131339445Y-69401817D01*
X131314015Y-69418200D01*
X131288070Y-69402683D01*
X131232820Y-69360810D01*
X131157262Y-69299596D01*
X131097160Y-69249044D01*
X130831479Y-69040207D01*
X130545195Y-68847315D01*
X130249674Y-68676823D01*
X129956279Y-68535187D01*
X129676376Y-68428859D01*
X129625068Y-68413006D01*
X129416456Y-68364023D01*
X129197558Y-68335280D01*
X128982642Y-68327363D01*
X128785972Y-68340857D01*
X128634541Y-68372342D01*
X128416189Y-68461940D01*
X128234511Y-68586348D01*
X128090286Y-68744424D01*
X127984296Y-68935028D01*
X127917324Y-69157018D01*
X127890150Y-69409253D01*
X127889550Y-69460210D01*
X127914663Y-69771931D01*
X127987617Y-70093871D01*
X128107084Y-70423488D01*
X128271733Y-70758242D01*
X128480235Y-71095593D01*
X128731260Y-71433000D01*
X129023479Y-71767923D01*
X129183756Y-71932800D01*
X129488366Y-72212729D01*
X129807510Y-72463038D01*
X130135250Y-72680224D01*
X130465649Y-72860783D01*
X130792767Y-73001211D01*
X131110667Y-73098004D01*
X131187072Y-73114786D01*
X131378234Y-73141628D01*
X131579516Y-73149519D01*
X131656803Y-73145413D01*
X131656803Y-72718441D01*
X131527508Y-72714948D01*
X131502595Y-72713812D01*
X131322848Y-72698385D01*
X131154640Y-72667542D01*
X130985600Y-72617500D01*
X130803357Y-72544477D01*
X130595540Y-72444690D01*
X130556000Y-72424391D01*
X130310876Y-72287523D01*
X130082375Y-72137444D01*
X129859467Y-71965823D01*
X129631124Y-71764334D01*
X129450961Y-71589900D01*
X129219699Y-71348007D01*
X129024555Y-71119052D01*
X128856933Y-70891865D01*
X128708238Y-70655272D01*
X128644928Y-70542240D01*
X128517150Y-70287632D01*
X128424098Y-70057012D01*
X128362764Y-69840357D01*
X128330138Y-69627645D01*
X128322720Y-69469000D01*
X128324198Y-69343641D01*
X128332107Y-69252473D01*
X128349041Y-69179036D01*
X128377594Y-69106867D01*
X128380919Y-69099663D01*
X128469123Y-68959760D01*
X128589160Y-68856181D01*
X128713053Y-68795103D01*
X128834036Y-68766648D01*
X128988726Y-68756871D01*
X129163951Y-68764892D01*
X129346536Y-68789826D01*
X129523308Y-68830790D01*
X129598033Y-68854422D01*
X129789084Y-68930384D01*
X129999744Y-69030082D01*
X130211363Y-69143830D01*
X130405289Y-69261945D01*
X130478745Y-69311771D01*
X130575959Y-69382719D01*
X130678948Y-69461832D01*
X130779163Y-69542058D01*
X130868054Y-69616341D01*
X130937072Y-69677627D01*
X130977667Y-69718862D01*
X130984371Y-69728963D01*
X130972482Y-69756908D01*
X130934658Y-69806776D01*
X130882380Y-69866128D01*
X130827126Y-69922526D01*
X130780378Y-69963529D01*
X130755455Y-69977000D01*
X130728112Y-69963016D01*
X130669799Y-69925429D01*
X130590431Y-69870784D01*
X130538494Y-69833737D01*
X130312092Y-69687141D01*
X130093069Y-69578069D01*
X129884899Y-69506640D01*
X129691053Y-69472977D01*
X129515003Y-69477200D01*
X129360224Y-69519428D01*
X129230186Y-69599783D01*
X129128362Y-69718386D01*
X129093015Y-69783528D01*
X129044110Y-69947198D01*
X129037732Y-70131355D01*
X129072120Y-70331611D01*
X129145509Y-70543577D01*
X129256136Y-70762863D01*
X129402237Y-70985081D01*
X129582047Y-71205843D01*
X129724317Y-71354503D01*
X129937581Y-71544499D01*
X130158028Y-71705082D01*
X130380174Y-71833891D01*
X130598537Y-71928565D01*
X130807633Y-71986744D01*
X131001978Y-72006068D01*
X131036243Y-72001760D01*
X131036243Y-71576474D01*
X130937081Y-71575041D01*
X130813763Y-71549238D01*
X130675479Y-71500768D01*
X130574080Y-71453951D01*
X130329424Y-71305942D01*
X130098040Y-71120976D01*
X129888235Y-70907996D01*
X129708315Y-70675947D01*
X129566586Y-70433771D01*
X129512169Y-70310483D01*
X129480986Y-70204485D01*
X129466651Y-70097889D01*
X129469545Y-70004981D01*
X129490048Y-69940049D01*
X129501939Y-69926169D01*
X129558345Y-69906693D01*
X129655930Y-69904423D01*
X129679477Y-69906076D01*
X129790912Y-69928919D01*
X129926198Y-69977013D01*
X130070072Y-70043199D01*
X130207269Y-70120317D01*
X130322523Y-70201210D01*
X130340100Y-70215913D01*
X130441700Y-70303776D01*
X130270250Y-70477576D01*
X130187588Y-70564169D01*
X130136024Y-70627100D01*
X130108823Y-70676604D01*
X130099245Y-70722916D01*
X130098800Y-70738001D01*
X130120600Y-70835910D01*
X130180376Y-70906208D01*
X130269691Y-70940308D01*
X130299441Y-70942200D01*
X130348060Y-70937217D01*
X130394812Y-70917661D01*
X130450362Y-70876624D01*
X130525377Y-70807198D01*
X130559124Y-70774001D01*
X130635159Y-70702794D01*
X130699623Y-70650223D01*
X130743322Y-70623406D01*
X130755188Y-70622221D01*
X130790333Y-70658091D01*
X130841741Y-70727592D01*
X130902300Y-70819251D01*
X130964901Y-70921596D01*
X131022432Y-71023153D01*
X131067783Y-71112451D01*
X131087066Y-71157690D01*
X131122441Y-71278173D01*
X131138213Y-71390903D01*
X131133922Y-71483818D01*
X131109109Y-71544855D01*
X131102062Y-71551832D01*
X131036243Y-71576474D01*
X131036243Y-72001760D01*
X131176089Y-71984175D01*
X131182817Y-71982336D01*
X131303343Y-71926761D01*
X131414081Y-71836964D01*
X131500315Y-71727111D01*
X131540763Y-71637754D01*
X131569768Y-71454673D01*
X131554616Y-71252599D01*
X131496469Y-71035489D01*
X131396489Y-70807302D01*
X131255840Y-70571994D01*
X131207264Y-70502507D01*
X131145709Y-70415452D01*
X131097401Y-70343684D01*
X131068888Y-70297116D01*
X131064000Y-70285546D01*
X131081293Y-70255685D01*
X131124878Y-70207260D01*
X131182316Y-70151752D01*
X131241168Y-70100640D01*
X131288996Y-70065406D01*
X131312038Y-70056630D01*
X131338515Y-70079284D01*
X131387903Y-70131549D01*
X131451075Y-70203611D01*
X131474175Y-70231000D01*
X131713356Y-70540791D01*
X131912356Y-70848257D01*
X132069832Y-71150327D01*
X132184438Y-71443931D01*
X132254831Y-71725999D01*
X132279666Y-71993460D01*
X132278187Y-72067167D01*
X132256479Y-72258908D01*
X132208866Y-72410971D01*
X132131532Y-72529423D01*
X132020661Y-72620334D01*
X131890948Y-72682898D01*
X131824920Y-72703498D01*
X131751406Y-72714985D01*
X131656803Y-72718441D01*
X131656803Y-73145413D01*
X131775469Y-73139107D01*
X131950645Y-73111043D01*
X132061003Y-73078064D01*
X132258339Y-72976992D01*
X132419973Y-72843046D01*
X132546111Y-72679288D01*
X132636961Y-72488777D01*
X132692727Y-72274575D01*
X132713615Y-72039742D01*
X132699833Y-71787340D01*
X132651587Y-71520428D01*
X132569081Y-71242068D01*
X132452523Y-70955319D01*
X132302118Y-70663244D01*
X132118074Y-70368903D01*
X131900595Y-70075356D01*
X131855005Y-70019312D01*
X131783479Y-69932497D01*
X131718665Y-69853526D01*
X131671624Y-69795883D01*
X131662103Y-69784110D01*
X131612506Y-69722497D01*
X131737021Y-69596082D01*
X131861535Y-69469666D01*
X131923023Y-69526483D01*
X131996154Y-69601151D01*
X132091727Y-69709261D01*
X132203190Y-69842539D01*
X132323991Y-69992715D01*
X132447580Y-70151515D01*
X132567404Y-70310667D01*
X132676912Y-70461900D01*
X132763172Y-70587311D01*
X132999708Y-70967905D01*
X133199952Y-71342556D01*
X133362522Y-71707612D01*
X133486032Y-72059423D01*
X133569099Y-72394337D01*
X133610339Y-72708704D01*
X133614858Y-72834500D01*
X133609072Y-73041064D01*
X133587391Y-73213106D01*
X133546806Y-73365243D01*
X133484308Y-73512094D01*
X133469352Y-73541281D01*
X133352048Y-73710775D01*
X133194478Y-73850266D01*
X132998185Y-73958603D01*
X132829300Y-74017929D01*
X132722633Y-74037240D01*
X132580368Y-74047954D01*
X132416941Y-74050273D01*
X132416941Y-74480728D01*
X132454704Y-74482806D01*
X132754325Y-74461417D01*
X133032148Y-74400038D01*
X133285413Y-74297593D01*
X133342542Y-74266602D01*
X133550781Y-74119339D01*
X133723511Y-73937472D01*
X133860073Y-73723355D01*
X133959808Y-73479344D01*
X134022058Y-73207794D01*
X134046166Y-72911059D01*
X134031472Y-72591495D01*
X133977318Y-72251457D01*
X133944854Y-72111792D01*
X133813264Y-71684087D01*
X133633112Y-71248860D01*
X133405693Y-70808344D01*
X133132299Y-70364770D01*
X132814226Y-69920370D01*
X132452765Y-69477373D01*
X132349224Y-69359774D01*
X132172058Y-69161648D01*
X132427793Y-68905913D01*
X132657896Y-69155707D01*
X133104751Y-69674455D01*
X133522793Y-70227767D01*
X133894376Y-70789800D01*
X133966815Y-70905041D01*
X134033050Y-71006152D01*
X134087192Y-71084449D01*
X134123349Y-71131246D01*
X134131260Y-71139050D01*
X134197416Y-71164599D01*
X134281104Y-71167197D01*
X134354586Y-71146938D01*
X134368202Y-71138243D01*
X134427538Y-71069530D01*
X134458159Y-70986426D01*
X134456727Y-70927733D01*
X134434326Y-70873451D01*
X134387579Y-70784875D01*
X134321080Y-70669461D01*
X134239422Y-70534666D01*
X134147197Y-70387948D01*
X134048999Y-70236763D01*
X133949422Y-70088568D01*
X133866927Y-69970241D01*
X133606202Y-69619959D01*
X133319610Y-69263805D01*
X133024305Y-68922924D01*
X132959540Y-68851720D01*
X132730914Y-68602739D01*
X133020102Y-68313551D01*
X133305701Y-68612321D01*
X133427476Y-68737336D01*
X133522174Y-68826773D01*
X133596033Y-68883401D01*
X133655291Y-68909993D01*
X133706188Y-68909319D01*
X133754962Y-68884150D01*
X133807850Y-68837257D01*
X133809154Y-68835954D01*
X133855375Y-68783565D01*
X133880881Y-68733822D01*
X133883127Y-68680666D01*
X133859571Y-68618041D01*
X133807671Y-68539889D01*
X133724883Y-68440151D01*
X133608665Y-68312771D01*
X133574019Y-68275823D01*
X133323678Y-68009746D01*
X134048039Y-67285062D01*
X134228993Y-67103795D01*
X134377130Y-66954621D01*
X134495715Y-66833867D01*
X134588007Y-66737862D01*
X134657270Y-66662935D01*
X134706766Y-66605413D01*
X134739755Y-66561626D01*
X134759501Y-66527901D01*
X134769264Y-66500567D01*
X134772307Y-66475952D01*
X134772401Y-66469717D01*
X134750278Y-66373152D01*
G37*
X134750278Y-66373152D02*
X134689484Y-66304002D01*
X134598385Y-66270483D01*
X134567725Y-66268600D01*
X134543686Y-66270835D01*
X134516959Y-66279708D01*
X134483900Y-66298469D01*
X134440864Y-66330371D01*
X134384209Y-66378666D01*
X134310289Y-66446603D01*
X134215461Y-66537435D01*
X134096082Y-66654414D01*
X133948506Y-66800791D01*
X133769090Y-66979817D01*
X133756006Y-66992895D01*
X133031389Y-67717189D01*
X132750050Y-67455338D01*
X132193982Y-66959751D01*
X131630494Y-66500590D01*
X131062001Y-66079207D01*
X130490919Y-65696959D01*
X129919665Y-65355200D01*
X129350655Y-65055284D01*
X128786306Y-64798566D01*
X128229033Y-64586401D01*
X127681252Y-64420143D01*
X127145381Y-64301148D01*
X127114300Y-64295652D01*
X126977313Y-64276074D01*
X126821657Y-64262599D01*
X126637338Y-64254636D01*
X126414359Y-64251599D01*
X126365000Y-64251530D01*
X126130051Y-64254513D01*
X125933472Y-64264537D01*
X125763105Y-64283435D01*
X125606787Y-64313039D01*
X125452358Y-64355180D01*
X125287657Y-64411692D01*
X125277976Y-64415284D01*
X124973939Y-64554371D01*
X124701272Y-64732808D01*
X124461379Y-64948927D01*
X124255660Y-65201058D01*
X124085516Y-65487535D01*
X123952351Y-65806688D01*
X123872537Y-66088090D01*
X123845304Y-66244836D01*
X123825436Y-66437938D01*
X123813316Y-66653434D01*
X123809329Y-66877362D01*
X123813858Y-67095761D01*
X123827286Y-67294668D01*
X123837058Y-67379516D01*
X123911314Y-67816288D01*
X124017000Y-68249717D01*
X124095435Y-68510637D01*
X124147869Y-68615343D01*
X124220985Y-68681094D01*
X124306748Y-68704783D01*
X124397120Y-68683301D01*
X124449870Y-68647733D01*
X124486161Y-68609923D01*
X124507534Y-68566057D01*
X124513788Y-68507757D01*
X124504724Y-68426644D01*
X124480142Y-68314338D01*
X124439843Y-68162460D01*
X124438170Y-68156413D01*
X124372230Y-67907766D01*
X124322564Y-67692205D01*
X124287117Y-67495440D01*
X124263835Y-67303178D01*
X124250662Y-67101129D01*
X124245545Y-66875001D01*
X124245286Y-66814700D01*
X124245700Y-66637389D01*
X124248112Y-66500360D01*
X124253382Y-66393111D01*
X124262372Y-66305136D01*
X124275944Y-66225932D01*
X124294957Y-66144994D01*
X124302550Y-66116200D01*
X124405191Y-65810742D01*
X124539403Y-65544159D01*
X124706974Y-65314169D01*
X124909694Y-65118492D01*
X125149353Y-64954846D01*
X125260100Y-64895788D01*
X125405545Y-64827575D01*
X125538639Y-64775345D01*
X125669962Y-64737091D01*
X125810090Y-64710805D01*
X125969602Y-64694480D01*
X126159075Y-64686108D01*
X126377700Y-64683691D01*
X126560496Y-64684101D01*
X126704487Y-64686486D01*
X126821661Y-64691834D01*
X126924002Y-64701136D01*
X127023499Y-64715379D01*
X127132136Y-64735553D01*
X127215900Y-64752859D01*
X127772605Y-64894168D01*
X128337722Y-65084121D01*
X128909356Y-65321620D01*
X129485610Y-65605565D01*
X130064585Y-65934860D01*
X130644386Y-66308405D01*
X131223116Y-66725101D01*
X131798877Y-67183851D01*
X132369772Y-67683555D01*
X132524500Y-67826917D01*
X132727700Y-68017456D01*
X132440920Y-68307428D01*
X132162885Y-68054925D01*
X131643180Y-67608022D01*
X131117551Y-67205516D01*
X130587917Y-66848592D01*
X130056197Y-66538432D01*
X129524310Y-66276221D01*
X128994176Y-66063140D01*
X128854200Y-66015049D01*
X128612400Y-65937690D01*
X128404254Y-65878342D01*
X128216804Y-65834821D01*
X128037090Y-65804943D01*
X127852155Y-65786522D01*
X127649039Y-65777376D01*
X127431800Y-65775279D01*
X127257988Y-65775968D01*
X127124885Y-65778028D01*
X127022398Y-65782448D01*
X126940439Y-65790218D01*
X126868917Y-65802326D01*
X126797741Y-65819762D01*
X126716821Y-65843515D01*
X126707900Y-65846246D01*
X126439215Y-65946003D01*
X126205549Y-66071710D01*
X125994896Y-66230112D01*
X125945891Y-66274243D01*
X125742392Y-66494193D01*
X125580130Y-66738178D01*
X125458217Y-67008485D01*
X125375761Y-67307406D01*
X125331872Y-67637230D01*
X125323600Y-67875218D01*
X125333893Y-68135800D01*
X125362749Y-68413376D01*
X125407130Y-68684261D01*
X125452986Y-68884800D01*
X125500652Y-69053378D01*
X125553308Y-69221869D01*
X125607841Y-69381840D01*
X125661137Y-69524859D01*
X125710079Y-69642491D01*
X125751555Y-69726304D01*
X125777530Y-69763603D01*
X125860427Y-69814573D01*
X125952956Y-69818508D01*
X126030752Y-69783937D01*
X126076545Y-69746575D01*
X126105407Y-69705221D01*
X126117069Y-69652145D01*
X126111262Y-69579620D01*
X126087720Y-69479916D01*
X126046173Y-69345305D01*
X126011979Y-69243063D01*
X125929945Y-68990303D01*
X125867631Y-68769367D01*
X125822342Y-68566489D01*
X125791385Y-68367905D01*
X125772068Y-68159850D01*
X125762953Y-67970400D01*
X125758656Y-67808893D01*
X125758442Y-67684951D01*
X125763177Y-67585442D01*
X125773728Y-67497234D01*
X125790961Y-67407193D01*
X125803801Y-67351295D01*
X125884297Y-67101037D01*
X125998980Y-66873376D01*
X126143139Y-66675028D01*
X126312060Y-66512708D01*
X126461951Y-66413257D01*
X126634582Y-66328656D01*
X126801952Y-66268587D01*
X126979667Y-66229093D01*
X127183333Y-66206217D01*
X127304800Y-66199571D01*
X127569183Y-66196444D01*
X127812704Y-66211091D01*
X128055540Y-66245745D01*
X128317869Y-66302641D01*
X128381985Y-66318825D01*
X128796281Y-66445424D01*
X129226831Y-66614410D01*
X129667916Y-66822368D01*
X130113819Y-67065884D01*
X130558822Y-67341542D01*
X130997206Y-67645926D01*
X131423256Y-67975622D01*
X131831251Y-68327213D01*
X131986925Y-68472084D01*
X132135150Y-68613146D01*
X131879353Y-68868943D01*
X131681227Y-68691777D01*
X131297520Y-68366364D01*
X130911416Y-68073259D01*
X130525464Y-67813319D01*
X130142217Y-67587404D01*
X129764225Y-67396370D01*
X129394038Y-67241076D01*
X129034208Y-67122380D01*
X128687285Y-67041139D01*
X128355820Y-66998212D01*
X128042364Y-66994456D01*
X127749468Y-67030729D01*
X127479682Y-67107889D01*
X127268160Y-67207566D01*
X127056314Y-67355898D01*
X126882473Y-67534978D01*
X126746078Y-67742483D01*
X126646572Y-67976089D01*
X126583400Y-68233474D01*
X126556004Y-68512313D01*
X126563826Y-68810284D01*
X126606311Y-69125063D01*
X126682901Y-69454327D01*
X126793039Y-69795753D01*
X126936168Y-70147016D01*
X127111731Y-70505795D01*
X127319172Y-70869766D01*
X127557933Y-71236604D01*
X127827457Y-71603988D01*
X128127188Y-71969594D01*
X128456569Y-72331097D01*
X128509504Y-72385857D01*
X128866757Y-72733484D01*
X129232570Y-73052933D01*
X129604183Y-73343132D01*
X129978836Y-73603005D01*
X130353769Y-73831480D01*
X130726223Y-74027481D01*
X131093437Y-74189936D01*
X131452652Y-74317770D01*
X131801108Y-74409908D01*
X132136046Y-74465279D01*
X132416941Y-74480728D01*
X132416941Y-74050273D01*
X132246788Y-74044397D01*
X132084344Y-74030528D01*
X131944044Y-74008868D01*
X131927600Y-74005361D01*
X131565274Y-73904837D01*
X131186689Y-73761816D01*
X130797906Y-73579436D01*
X130404986Y-73360833D01*
X130013989Y-73109145D01*
X129630978Y-72827509D01*
X129590800Y-72795795D01*
X129453497Y-72680609D01*
X129291891Y-72535154D01*
X129114493Y-72367938D01*
X128929814Y-72187474D01*
X128746364Y-72002270D01*
X128572654Y-71820839D01*
X128417194Y-71651689D01*
X128288494Y-71503333D01*
X128245206Y-71450200D01*
X127999851Y-71123201D01*
X127773973Y-70785686D01*
X127570806Y-70444054D01*
X127393584Y-70104702D01*
X127245538Y-69774029D01*
X127129903Y-69458431D01*
X127049911Y-69164307D01*
X127025848Y-69037200D01*
X127009920Y-68939946D01*
X126996032Y-68859527D01*
X126986902Y-68811609D01*
X126986210Y-68808600D01*
X126980804Y-68748915D01*
X126981723Y-68653594D01*
X126987843Y-68537251D01*
X126998035Y-68414501D01*
X127011174Y-68299958D01*
X127026132Y-68208236D01*
X127035401Y-68170590D01*
X127125163Y-67953517D01*
X127249028Y-67773607D01*
X127408407Y-67629506D01*
X127604708Y-67519861D01*
X127774700Y-67460072D01*
X127881368Y-67440761D01*
X128023633Y-67430047D01*
X128187060Y-67427728D01*
X128357213Y-67433604D01*
X128519657Y-67447473D01*
X128659957Y-67469133D01*
X128676400Y-67472640D01*
X129026492Y-67569269D01*
X129393999Y-67706263D01*
X129770923Y-67879999D01*
X130149264Y-68086855D01*
X130451532Y-68276377D01*
X130668770Y-68426621D01*
X130890763Y-68590684D01*
X131105258Y-68758951D01*
X131300004Y-68921808D01*
X131462749Y-69069641D01*
X131464145Y-69070984D01*
X131572190Y-69174963D01*
X131452400Y-69296582D01*
X131389254Y-69358083D01*
X131339445Y-69401817D01*
X131314015Y-69418200D01*
X131288070Y-69402683D01*
X131232820Y-69360810D01*
X131157262Y-69299596D01*
X131097160Y-69249044D01*
X130831479Y-69040207D01*
X130545195Y-68847315D01*
X130249674Y-68676823D01*
X129956279Y-68535187D01*
X129676376Y-68428859D01*
X129625068Y-68413006D01*
X129416456Y-68364023D01*
X129197558Y-68335280D01*
X128982642Y-68327363D01*
X128785972Y-68340857D01*
X128634541Y-68372342D01*
X128416189Y-68461940D01*
X128234511Y-68586348D01*
X128090286Y-68744424D01*
X127984296Y-68935028D01*
X127917324Y-69157018D01*
X127890150Y-69409253D01*
X127889550Y-69460210D01*
X127914663Y-69771931D01*
X127987617Y-70093871D01*
X128107084Y-70423488D01*
X128271733Y-70758242D01*
X128480235Y-71095593D01*
X128731260Y-71433000D01*
X129023479Y-71767923D01*
X129183756Y-71932800D01*
X129488366Y-72212729D01*
X129807510Y-72463038D01*
X130135250Y-72680224D01*
X130465649Y-72860783D01*
X130792767Y-73001211D01*
X131110667Y-73098004D01*
X131187072Y-73114786D01*
X131378234Y-73141628D01*
X131579516Y-73149519D01*
X131656803Y-73145413D01*
X131656803Y-72718441D01*
X131527508Y-72714948D01*
X131502595Y-72713812D01*
X131322848Y-72698385D01*
X131154640Y-72667542D01*
X130985600Y-72617500D01*
X130803357Y-72544477D01*
X130595540Y-72444690D01*
X130556000Y-72424391D01*
X130310876Y-72287523D01*
X130082375Y-72137444D01*
X129859467Y-71965823D01*
X129631124Y-71764334D01*
X129450961Y-71589900D01*
X129219699Y-71348007D01*
X129024555Y-71119052D01*
X128856933Y-70891865D01*
X128708238Y-70655272D01*
X128644928Y-70542240D01*
X128517150Y-70287632D01*
X128424098Y-70057012D01*
X128362764Y-69840357D01*
X128330138Y-69627645D01*
X128322720Y-69469000D01*
X128324198Y-69343641D01*
X128332107Y-69252473D01*
X128349041Y-69179036D01*
X128377594Y-69106867D01*
X128380919Y-69099663D01*
X128469123Y-68959760D01*
X128589160Y-68856181D01*
X128713053Y-68795103D01*
X128834036Y-68766648D01*
X128988726Y-68756871D01*
X129163951Y-68764892D01*
X129346536Y-68789826D01*
X129523308Y-68830790D01*
X129598033Y-68854422D01*
X129789084Y-68930384D01*
X129999744Y-69030082D01*
X130211363Y-69143830D01*
X130405289Y-69261945D01*
X130478745Y-69311771D01*
X130575959Y-69382719D01*
X130678948Y-69461832D01*
X130779163Y-69542058D01*
X130868054Y-69616341D01*
X130937072Y-69677627D01*
X130977667Y-69718862D01*
X130984371Y-69728963D01*
X130972482Y-69756908D01*
X130934658Y-69806776D01*
X130882380Y-69866128D01*
X130827126Y-69922526D01*
X130780378Y-69963529D01*
X130755455Y-69977000D01*
X130728112Y-69963016D01*
X130669799Y-69925429D01*
X130590431Y-69870784D01*
X130538494Y-69833737D01*
X130312092Y-69687141D01*
X130093069Y-69578069D01*
X129884899Y-69506640D01*
X129691053Y-69472977D01*
X129515003Y-69477200D01*
X129360224Y-69519428D01*
X129230186Y-69599783D01*
X129128362Y-69718386D01*
X129093015Y-69783528D01*
X129044110Y-69947198D01*
X129037732Y-70131355D01*
X129072120Y-70331611D01*
X129145509Y-70543577D01*
X129256136Y-70762863D01*
X129402237Y-70985081D01*
X129582047Y-71205843D01*
X129724317Y-71354503D01*
X129937581Y-71544499D01*
X130158028Y-71705082D01*
X130380174Y-71833891D01*
X130598537Y-71928565D01*
X130807633Y-71986744D01*
X131001978Y-72006068D01*
X131036243Y-72001760D01*
X131036243Y-71576474D01*
X130937081Y-71575041D01*
X130813763Y-71549238D01*
X130675479Y-71500768D01*
X130574080Y-71453951D01*
X130329424Y-71305942D01*
X130098040Y-71120976D01*
X129888235Y-70907996D01*
X129708315Y-70675947D01*
X129566586Y-70433771D01*
X129512169Y-70310483D01*
X129480986Y-70204485D01*
X129466651Y-70097889D01*
X129469545Y-70004981D01*
X129490048Y-69940049D01*
X129501939Y-69926169D01*
X129558345Y-69906693D01*
X129655930Y-69904423D01*
X129679477Y-69906076D01*
X129790912Y-69928919D01*
X129926198Y-69977013D01*
X130070072Y-70043199D01*
X130207269Y-70120317D01*
X130322523Y-70201210D01*
X130340100Y-70215913D01*
X130441700Y-70303776D01*
X130270250Y-70477576D01*
X130187588Y-70564169D01*
X130136024Y-70627100D01*
X130108823Y-70676604D01*
X130099245Y-70722916D01*
X130098800Y-70738001D01*
X130120600Y-70835910D01*
X130180376Y-70906208D01*
X130269691Y-70940308D01*
X130299441Y-70942200D01*
X130348060Y-70937217D01*
X130394812Y-70917661D01*
X130450362Y-70876624D01*
X130525377Y-70807198D01*
X130559124Y-70774001D01*
X130635159Y-70702794D01*
X130699623Y-70650223D01*
X130743322Y-70623406D01*
X130755188Y-70622221D01*
X130790333Y-70658091D01*
X130841741Y-70727592D01*
X130902300Y-70819251D01*
X130964901Y-70921596D01*
X131022432Y-71023153D01*
X131067783Y-71112451D01*
X131087066Y-71157690D01*
X131122441Y-71278173D01*
X131138213Y-71390903D01*
X131133922Y-71483818D01*
X131109109Y-71544855D01*
X131102062Y-71551832D01*
X131036243Y-71576474D01*
X131036243Y-72001760D01*
X131176089Y-71984175D01*
X131182817Y-71982336D01*
X131303343Y-71926761D01*
X131414081Y-71836964D01*
X131500315Y-71727111D01*
X131540763Y-71637754D01*
X131569768Y-71454673D01*
X131554616Y-71252599D01*
X131496469Y-71035489D01*
X131396489Y-70807302D01*
X131255840Y-70571994D01*
X131207264Y-70502507D01*
X131145709Y-70415452D01*
X131097401Y-70343684D01*
X131068888Y-70297116D01*
X131064000Y-70285546D01*
X131081293Y-70255685D01*
X131124878Y-70207260D01*
X131182316Y-70151752D01*
X131241168Y-70100640D01*
X131288996Y-70065406D01*
X131312038Y-70056630D01*
X131338515Y-70079284D01*
X131387903Y-70131549D01*
X131451075Y-70203611D01*
X131474175Y-70231000D01*
X131713356Y-70540791D01*
X131912356Y-70848257D01*
X132069832Y-71150327D01*
X132184438Y-71443931D01*
X132254831Y-71725999D01*
X132279666Y-71993460D01*
X132278187Y-72067167D01*
X132256479Y-72258908D01*
X132208866Y-72410971D01*
X132131532Y-72529423D01*
X132020661Y-72620334D01*
X131890948Y-72682898D01*
X131824920Y-72703498D01*
X131751406Y-72714985D01*
X131656803Y-72718441D01*
X131656803Y-73145413D01*
X131775469Y-73139107D01*
X131950645Y-73111043D01*
X132061003Y-73078064D01*
X132258339Y-72976992D01*
X132419973Y-72843046D01*
X132546111Y-72679288D01*
X132636961Y-72488777D01*
X132692727Y-72274575D01*
X132713615Y-72039742D01*
X132699833Y-71787340D01*
X132651587Y-71520428D01*
X132569081Y-71242068D01*
X132452523Y-70955319D01*
X132302118Y-70663244D01*
X132118074Y-70368903D01*
X131900595Y-70075356D01*
X131855005Y-70019312D01*
X131783479Y-69932497D01*
X131718665Y-69853526D01*
X131671624Y-69795883D01*
X131662103Y-69784110D01*
X131612506Y-69722497D01*
X131737021Y-69596082D01*
X131861535Y-69469666D01*
X131923023Y-69526483D01*
X131996154Y-69601151D01*
X132091727Y-69709261D01*
X132203190Y-69842539D01*
X132323991Y-69992715D01*
X132447580Y-70151515D01*
X132567404Y-70310667D01*
X132676912Y-70461900D01*
X132763172Y-70587311D01*
X132999708Y-70967905D01*
X133199952Y-71342556D01*
X133362522Y-71707612D01*
X133486032Y-72059423D01*
X133569099Y-72394337D01*
X133610339Y-72708704D01*
X133614858Y-72834500D01*
X133609072Y-73041064D01*
X133587391Y-73213106D01*
X133546806Y-73365243D01*
X133484308Y-73512094D01*
X133469352Y-73541281D01*
X133352048Y-73710775D01*
X133194478Y-73850266D01*
X132998185Y-73958603D01*
X132829300Y-74017929D01*
X132722633Y-74037240D01*
X132580368Y-74047954D01*
X132416941Y-74050273D01*
X132416941Y-74480728D01*
X132454704Y-74482806D01*
X132754325Y-74461417D01*
X133032148Y-74400038D01*
X133285413Y-74297593D01*
X133342542Y-74266602D01*
X133550781Y-74119339D01*
X133723511Y-73937472D01*
X133860073Y-73723355D01*
X133959808Y-73479344D01*
X134022058Y-73207794D01*
X134046166Y-72911059D01*
X134031472Y-72591495D01*
X133977318Y-72251457D01*
X133944854Y-72111792D01*
X133813264Y-71684087D01*
X133633112Y-71248860D01*
X133405693Y-70808344D01*
X133132299Y-70364770D01*
X132814226Y-69920370D01*
X132452765Y-69477373D01*
X132349224Y-69359774D01*
X132172058Y-69161648D01*
X132427793Y-68905913D01*
X132657896Y-69155707D01*
X133104751Y-69674455D01*
X133522793Y-70227767D01*
X133894376Y-70789800D01*
X133966815Y-70905041D01*
X134033050Y-71006152D01*
X134087192Y-71084449D01*
X134123349Y-71131246D01*
X134131260Y-71139050D01*
X134197416Y-71164599D01*
X134281104Y-71167197D01*
X134354586Y-71146938D01*
X134368202Y-71138243D01*
X134427538Y-71069530D01*
X134458159Y-70986426D01*
X134456727Y-70927733D01*
X134434326Y-70873451D01*
X134387579Y-70784875D01*
X134321080Y-70669461D01*
X134239422Y-70534666D01*
X134147197Y-70387948D01*
X134048999Y-70236763D01*
X133949422Y-70088568D01*
X133866927Y-69970241D01*
X133606202Y-69619959D01*
X133319610Y-69263805D01*
X133024305Y-68922924D01*
X132959540Y-68851720D01*
X132730914Y-68602739D01*
X133020102Y-68313551D01*
X133305701Y-68612321D01*
X133427476Y-68737336D01*
X133522174Y-68826773D01*
X133596033Y-68883401D01*
X133655291Y-68909993D01*
X133706188Y-68909319D01*
X133754962Y-68884150D01*
X133807850Y-68837257D01*
X133809154Y-68835954D01*
X133855375Y-68783565D01*
X133880881Y-68733822D01*
X133883127Y-68680666D01*
X133859571Y-68618041D01*
X133807671Y-68539889D01*
X133724883Y-68440151D01*
X133608665Y-68312771D01*
X133574019Y-68275823D01*
X133323678Y-68009746D01*
X134048039Y-67285062D01*
X134228993Y-67103795D01*
X134377130Y-66954621D01*
X134495715Y-66833867D01*
X134588007Y-66737862D01*
X134657270Y-66662935D01*
X134706766Y-66605413D01*
X134739755Y-66561626D01*
X134759501Y-66527901D01*
X134769264Y-66500567D01*
X134772307Y-66475952D01*
X134772401Y-66469717D01*
X134750278Y-66373152D01*
G36*
X126543714Y-72024103D02*
G01*
X126515234Y-71972216D01*
X126461854Y-71893203D01*
X126392159Y-71798138D01*
X126314739Y-71698096D01*
X126238178Y-71604150D01*
X126171064Y-71527375D01*
X126121983Y-71478845D01*
X126119149Y-71476558D01*
X126054834Y-71439750D01*
X125994691Y-71424800D01*
X125918281Y-71447160D01*
X125851729Y-71504232D01*
X125805552Y-71581002D01*
X125790265Y-71662457D01*
X125798988Y-71704200D01*
X125821645Y-71742637D01*
X125868122Y-71810271D01*
X125930562Y-71896582D01*
X126001111Y-71991054D01*
X126071912Y-72083167D01*
X126135109Y-72162403D01*
X126182847Y-72218242D01*
X126183131Y-72218550D01*
X126259979Y-72272658D01*
X126344881Y-72288250D01*
X126427400Y-72270956D01*
X126497101Y-72226403D01*
X126543546Y-72160218D01*
X126556299Y-72078031D01*
X126543714Y-72024103D01*
G37*
X126543714Y-72024103D02*
X126515234Y-71972216D01*
X126461854Y-71893203D01*
X126392159Y-71798138D01*
X126314739Y-71698096D01*
X126238178Y-71604150D01*
X126171064Y-71527375D01*
X126121983Y-71478845D01*
X126119149Y-71476558D01*
X126054834Y-71439750D01*
X125994691Y-71424800D01*
X125918281Y-71447160D01*
X125851729Y-71504232D01*
X125805552Y-71581002D01*
X125790265Y-71662457D01*
X125798988Y-71704200D01*
X125821645Y-71742637D01*
X125868122Y-71810271D01*
X125930562Y-71896582D01*
X126001111Y-71991054D01*
X126071912Y-72083167D01*
X126135109Y-72162403D01*
X126182847Y-72218242D01*
X126183131Y-72218550D01*
X126259979Y-72272658D01*
X126344881Y-72288250D01*
X126427400Y-72270956D01*
X126497101Y-72226403D01*
X126543546Y-72160218D01*
X126556299Y-72078031D01*
X126543714Y-72024103D01*
G36*
X136788534Y-74650600D02*
G01*
X136780922Y-74325123D01*
X136758373Y-74034798D01*
X136719102Y-73765712D01*
X136661327Y-73503952D01*
X136624273Y-73369173D01*
X136588425Y-73246299D01*
X136549156Y-73111665D01*
X136522068Y-73018764D01*
X136489708Y-72920540D01*
X136458009Y-72859188D01*
X136419161Y-72821491D01*
X136398220Y-72809214D01*
X136302238Y-72775095D01*
X136222794Y-72784942D01*
X136155546Y-72833346D01*
X136119602Y-72878866D01*
X136100054Y-72932975D01*
X136097121Y-73004203D01*
X136111019Y-73101081D01*
X136141968Y-73232139D01*
X136168229Y-73328643D01*
X136235698Y-73581982D01*
X136285943Y-73803811D01*
X136321167Y-74009556D01*
X136343571Y-74214648D01*
X136355356Y-74434513D01*
X136358715Y-74663300D01*
X136358312Y-74840329D01*
X136355930Y-74977061D01*
X136350704Y-75083988D01*
X136341771Y-75171603D01*
X136328263Y-75250398D01*
X136309317Y-75330863D01*
X136301123Y-75361800D01*
X136195293Y-75671734D01*
X136055009Y-75944390D01*
X135879725Y-76180323D01*
X135668892Y-76380085D01*
X135421962Y-76544228D01*
X135138388Y-76673307D01*
X134937500Y-76737747D01*
X134859822Y-76757558D01*
X134784951Y-76772161D01*
X134703088Y-76782335D01*
X134604432Y-76788859D01*
X134479186Y-76792513D01*
X134317550Y-76794076D01*
X134226300Y-76794310D01*
X134043505Y-76793900D01*
X133899514Y-76791515D01*
X133782340Y-76786167D01*
X133679999Y-76776865D01*
X133580502Y-76762622D01*
X133471865Y-76742448D01*
X133388100Y-76725142D01*
X132821139Y-76581168D01*
X132247133Y-76387611D01*
X131667119Y-76145044D01*
X131082136Y-75854035D01*
X130493222Y-75515157D01*
X129901417Y-75128980D01*
X129307757Y-74696074D01*
X128713282Y-74217011D01*
X128513958Y-74046152D01*
X128417808Y-73959904D01*
X128293514Y-73844435D01*
X128148464Y-73706831D01*
X127990045Y-73554178D01*
X127825644Y-73393561D01*
X127662649Y-73232068D01*
X127603880Y-73173213D01*
X127431482Y-73000344D01*
X127290735Y-72860877D01*
X127177540Y-72752122D01*
X127087798Y-72671386D01*
X127017411Y-72615981D01*
X126962281Y-72583215D01*
X126918310Y-72570397D01*
X126881399Y-72574837D01*
X126847449Y-72593843D01*
X126812364Y-72624726D01*
X126794847Y-72642047D01*
X126748507Y-72694631D01*
X126723020Y-72744582D01*
X126720934Y-72797944D01*
X126744797Y-72860761D01*
X126797157Y-72939081D01*
X126880562Y-73038946D01*
X126997560Y-73166404D01*
X127030630Y-73201464D01*
X127281750Y-73466827D01*
X126556675Y-74192225D01*
X126375625Y-74373588D01*
X126227392Y-74522857D01*
X126108716Y-74643700D01*
X126016336Y-74739787D01*
X125946991Y-74814787D01*
X125897423Y-74872371D01*
X125864369Y-74916206D01*
X125844571Y-74949964D01*
X125834767Y-74977312D01*
X125831698Y-75001922D01*
X125831600Y-75008284D01*
X125851624Y-75102929D01*
X125890388Y-75154173D01*
X125973807Y-75200445D01*
X126036276Y-75209400D01*
X126060315Y-75207166D01*
X126087042Y-75198293D01*
X126120101Y-75179532D01*
X126163137Y-75147630D01*
X126219792Y-75099335D01*
X126293712Y-75031398D01*
X126388540Y-74940566D01*
X126507919Y-74823587D01*
X126655495Y-74677210D01*
X126834911Y-74498184D01*
X126847995Y-74485106D01*
X127572612Y-73760812D01*
X127860207Y-74028486D01*
X128351029Y-74467697D01*
X128847973Y-74878151D01*
X129348829Y-75258951D01*
X129851388Y-75609199D01*
X130353443Y-75927997D01*
X130852783Y-76214447D01*
X131347200Y-76467652D01*
X131834484Y-76686713D01*
X132312428Y-76870734D01*
X132778821Y-77018816D01*
X133231455Y-77130062D01*
X133668120Y-77203573D01*
X134086609Y-77238453D01*
X134484712Y-77233803D01*
X134860219Y-77188726D01*
X135210922Y-77102323D01*
X135326025Y-77062665D01*
X135630456Y-76923721D01*
X135902786Y-76745776D01*
X136142087Y-76529942D01*
X136347431Y-76277327D01*
X136517889Y-75989044D01*
X136652535Y-75666201D01*
X136735675Y-75376009D01*
X136755442Y-75283927D01*
X136769786Y-75194657D01*
X136779487Y-75097490D01*
X136785325Y-74981718D01*
X136788081Y-74836634D01*
X136788536Y-74651527D01*
X136788534Y-74650600D01*
G37*
X136788534Y-74650600D02*
X136780922Y-74325123D01*
X136758373Y-74034798D01*
X136719102Y-73765712D01*
X136661327Y-73503952D01*
X136624273Y-73369173D01*
X136588425Y-73246299D01*
X136549156Y-73111665D01*
X136522068Y-73018764D01*
X136489708Y-72920540D01*
X136458009Y-72859188D01*
X136419161Y-72821491D01*
X136398220Y-72809214D01*
X136302238Y-72775095D01*
X136222794Y-72784942D01*
X136155546Y-72833346D01*
X136119602Y-72878866D01*
X136100054Y-72932975D01*
X136097121Y-73004203D01*
X136111019Y-73101081D01*
X136141968Y-73232139D01*
X136168229Y-73328643D01*
X136235698Y-73581982D01*
X136285943Y-73803811D01*
X136321167Y-74009556D01*
X136343571Y-74214648D01*
X136355356Y-74434513D01*
X136358715Y-74663300D01*
X136358312Y-74840329D01*
X136355930Y-74977061D01*
X136350704Y-75083988D01*
X136341771Y-75171603D01*
X136328263Y-75250398D01*
X136309317Y-75330863D01*
X136301123Y-75361800D01*
X136195293Y-75671734D01*
X136055009Y-75944390D01*
X135879725Y-76180323D01*
X135668892Y-76380085D01*
X135421962Y-76544228D01*
X135138388Y-76673307D01*
X134937500Y-76737747D01*
X134859822Y-76757558D01*
X134784951Y-76772161D01*
X134703088Y-76782335D01*
X134604432Y-76788859D01*
X134479186Y-76792513D01*
X134317550Y-76794076D01*
X134226300Y-76794310D01*
X134043505Y-76793900D01*
X133899514Y-76791515D01*
X133782340Y-76786167D01*
X133679999Y-76776865D01*
X133580502Y-76762622D01*
X133471865Y-76742448D01*
X133388100Y-76725142D01*
X132821139Y-76581168D01*
X132247133Y-76387611D01*
X131667119Y-76145044D01*
X131082136Y-75854035D01*
X130493222Y-75515157D01*
X129901417Y-75128980D01*
X129307757Y-74696074D01*
X128713282Y-74217011D01*
X128513958Y-74046152D01*
X128417808Y-73959904D01*
X128293514Y-73844435D01*
X128148464Y-73706831D01*
X127990045Y-73554178D01*
X127825644Y-73393561D01*
X127662649Y-73232068D01*
X127603880Y-73173213D01*
X127431482Y-73000344D01*
X127290735Y-72860877D01*
X127177540Y-72752122D01*
X127087798Y-72671386D01*
X127017411Y-72615981D01*
X126962281Y-72583215D01*
X126918310Y-72570397D01*
X126881399Y-72574837D01*
X126847449Y-72593843D01*
X126812364Y-72624726D01*
X126794847Y-72642047D01*
X126748507Y-72694631D01*
X126723020Y-72744582D01*
X126720934Y-72797944D01*
X126744797Y-72860761D01*
X126797157Y-72939081D01*
X126880562Y-73038946D01*
X126997560Y-73166404D01*
X127030630Y-73201464D01*
X127281750Y-73466827D01*
X126556675Y-74192225D01*
X126375625Y-74373588D01*
X126227392Y-74522857D01*
X126108716Y-74643700D01*
X126016336Y-74739787D01*
X125946991Y-74814787D01*
X125897423Y-74872371D01*
X125864369Y-74916206D01*
X125844571Y-74949964D01*
X125834767Y-74977312D01*
X125831698Y-75001922D01*
X125831600Y-75008284D01*
X125851624Y-75102929D01*
X125890388Y-75154173D01*
X125973807Y-75200445D01*
X126036276Y-75209400D01*
X126060315Y-75207166D01*
X126087042Y-75198293D01*
X126120101Y-75179532D01*
X126163137Y-75147630D01*
X126219792Y-75099335D01*
X126293712Y-75031398D01*
X126388540Y-74940566D01*
X126507919Y-74823587D01*
X126655495Y-74677210D01*
X126834911Y-74498184D01*
X126847995Y-74485106D01*
X127572612Y-73760812D01*
X127860207Y-74028486D01*
X128351029Y-74467697D01*
X128847973Y-74878151D01*
X129348829Y-75258951D01*
X129851388Y-75609199D01*
X130353443Y-75927997D01*
X130852783Y-76214447D01*
X131347200Y-76467652D01*
X131834484Y-76686713D01*
X132312428Y-76870734D01*
X132778821Y-77018816D01*
X133231455Y-77130062D01*
X133668120Y-77203573D01*
X134086609Y-77238453D01*
X134484712Y-77233803D01*
X134860219Y-77188726D01*
X135210922Y-77102323D01*
X135326025Y-77062665D01*
X135630456Y-76923721D01*
X135902786Y-76745776D01*
X136142087Y-76529942D01*
X136347431Y-76277327D01*
X136517889Y-75989044D01*
X136652535Y-75666201D01*
X136735675Y-75376009D01*
X136755442Y-75283927D01*
X136769786Y-75194657D01*
X136779487Y-75097490D01*
X136785325Y-74981718D01*
X136788081Y-74836634D01*
X136788536Y-74651527D01*
X136788534Y-74650600D01*
G36*
X135264339Y-73396836D02*
G01*
X135261081Y-73249096D01*
X135254598Y-73129030D01*
X135244015Y-73025085D01*
X135228458Y-72925707D01*
X135207585Y-72821800D01*
X135171925Y-72672327D01*
X135127317Y-72509296D01*
X135076706Y-72341281D01*
X135023040Y-72176855D01*
X134969263Y-72024592D01*
X134918323Y-71893065D01*
X134873164Y-71790847D01*
X134836734Y-71726513D01*
X134827377Y-71715305D01*
X134743933Y-71663611D01*
X134651276Y-71659384D01*
X134573249Y-71694064D01*
X134527456Y-71731426D01*
X134498594Y-71772780D01*
X134486932Y-71825856D01*
X134492739Y-71898381D01*
X134516281Y-71998085D01*
X134557828Y-72132696D01*
X134592022Y-72234938D01*
X134674056Y-72487698D01*
X134736370Y-72708634D01*
X134781659Y-72911512D01*
X134812616Y-73110096D01*
X134831933Y-73318151D01*
X134841048Y-73507600D01*
X134845345Y-73669108D01*
X134845559Y-73793050D01*
X134840824Y-73892559D01*
X134830273Y-73980767D01*
X134813040Y-74070808D01*
X134800200Y-74126706D01*
X134715309Y-74395037D01*
X134596364Y-74626818D01*
X134441447Y-74824119D01*
X134248639Y-74989013D01*
X134016023Y-75123569D01*
X133794500Y-75212628D01*
X133725412Y-75234596D01*
X133660764Y-75250510D01*
X133590463Y-75261328D01*
X133504416Y-75268010D01*
X133392529Y-75271512D01*
X133244709Y-75272793D01*
X133159500Y-75272900D01*
X132979164Y-75271876D01*
X132836997Y-75268112D01*
X132720398Y-75260574D01*
X132616764Y-75248229D01*
X132513494Y-75230041D01*
X132435600Y-75213486D01*
X131968702Y-75086419D01*
X131493528Y-74912743D01*
X131013609Y-74695259D01*
X130532476Y-74436768D01*
X130053659Y-74140070D01*
X129580689Y-73807965D01*
X129117097Y-73443255D01*
X128666413Y-73048740D01*
X128232167Y-72627220D01*
X127817891Y-72181496D01*
X127427115Y-71714368D01*
X127063369Y-71228638D01*
X126730184Y-70727106D01*
X126682703Y-70650100D01*
X126614990Y-70541738D01*
X126553298Y-70447706D01*
X126504041Y-70377468D01*
X126473631Y-70340487D01*
X126471833Y-70338950D01*
X126408029Y-70313446D01*
X126323549Y-70308411D01*
X126251838Y-70322979D01*
X126207774Y-70360280D01*
X126166562Y-70425951D01*
X126140230Y-70498396D01*
X126136400Y-70530285D01*
X126149250Y-70567547D01*
X126184708Y-70639108D01*
X126238140Y-70736390D01*
X126304912Y-70850814D01*
X126347316Y-70920664D01*
X126671652Y-71415759D01*
X127027032Y-71896441D01*
X127419547Y-72370446D01*
X127855290Y-72845508D01*
X127899094Y-72890912D01*
X128404935Y-73385798D01*
X128921663Y-73837900D01*
X129447368Y-74245943D01*
X129980142Y-74608653D01*
X130518077Y-74924755D01*
X131059264Y-75192975D01*
X131601794Y-75412038D01*
X131754033Y-75464510D01*
X132005792Y-75544513D01*
X132225296Y-75605323D01*
X132426320Y-75649238D01*
X132622640Y-75678552D01*
X132828031Y-75695563D01*
X133056270Y-75702567D01*
X133184900Y-75703029D01*
X133356833Y-75702039D01*
X133488339Y-75699619D01*
X133589790Y-75694728D01*
X133671557Y-75686324D01*
X133744011Y-75673364D01*
X133817525Y-75654805D01*
X133896100Y-75631557D01*
X134116705Y-75554679D01*
X134302780Y-75466437D01*
X134470567Y-75357139D01*
X134636308Y-75217097D01*
X134710101Y-75145900D01*
X134821087Y-75031609D01*
X134903600Y-74935533D01*
X134968330Y-74843531D01*
X135025967Y-74741463D01*
X135046119Y-74701400D01*
X135117701Y-74548441D01*
X135172211Y-74410787D01*
X135211836Y-74277284D01*
X135238764Y-74136780D01*
X135255181Y-73978120D01*
X135263273Y-73790153D01*
X135265247Y-73583800D01*
X135264339Y-73396836D01*
G37*
X135264339Y-73396836D02*
X135261081Y-73249096D01*
X135254598Y-73129030D01*
X135244015Y-73025085D01*
X135228458Y-72925707D01*
X135207585Y-72821800D01*
X135171925Y-72672327D01*
X135127317Y-72509296D01*
X135076706Y-72341281D01*
X135023040Y-72176855D01*
X134969263Y-72024592D01*
X134918323Y-71893065D01*
X134873164Y-71790847D01*
X134836734Y-71726513D01*
X134827377Y-71715305D01*
X134743933Y-71663611D01*
X134651276Y-71659384D01*
X134573249Y-71694064D01*
X134527456Y-71731426D01*
X134498594Y-71772780D01*
X134486932Y-71825856D01*
X134492739Y-71898381D01*
X134516281Y-71998085D01*
X134557828Y-72132696D01*
X134592022Y-72234938D01*
X134674056Y-72487698D01*
X134736370Y-72708634D01*
X134781659Y-72911512D01*
X134812616Y-73110096D01*
X134831933Y-73318151D01*
X134841048Y-73507600D01*
X134845345Y-73669108D01*
X134845559Y-73793050D01*
X134840824Y-73892559D01*
X134830273Y-73980767D01*
X134813040Y-74070808D01*
X134800200Y-74126706D01*
X134715309Y-74395037D01*
X134596364Y-74626818D01*
X134441447Y-74824119D01*
X134248639Y-74989013D01*
X134016023Y-75123569D01*
X133794500Y-75212628D01*
X133725412Y-75234596D01*
X133660764Y-75250510D01*
X133590463Y-75261328D01*
X133504416Y-75268010D01*
X133392529Y-75271512D01*
X133244709Y-75272793D01*
X133159500Y-75272900D01*
X132979164Y-75271876D01*
X132836997Y-75268112D01*
X132720398Y-75260574D01*
X132616764Y-75248229D01*
X132513494Y-75230041D01*
X132435600Y-75213486D01*
X131968702Y-75086419D01*
X131493528Y-74912743D01*
X131013609Y-74695259D01*
X130532476Y-74436768D01*
X130053659Y-74140070D01*
X129580689Y-73807965D01*
X129117097Y-73443255D01*
X128666413Y-73048740D01*
X128232167Y-72627220D01*
X127817891Y-72181496D01*
X127427115Y-71714368D01*
X127063369Y-71228638D01*
X126730184Y-70727106D01*
X126682703Y-70650100D01*
X126614990Y-70541738D01*
X126553298Y-70447706D01*
X126504041Y-70377468D01*
X126473631Y-70340487D01*
X126471833Y-70338950D01*
X126408029Y-70313446D01*
X126323549Y-70308411D01*
X126251838Y-70322979D01*
X126207774Y-70360280D01*
X126166562Y-70425951D01*
X126140230Y-70498396D01*
X126136400Y-70530285D01*
X126149250Y-70567547D01*
X126184708Y-70639108D01*
X126238140Y-70736390D01*
X126304912Y-70850814D01*
X126347316Y-70920664D01*
X126671652Y-71415759D01*
X127027032Y-71896441D01*
X127419547Y-72370446D01*
X127855290Y-72845508D01*
X127899094Y-72890912D01*
X128404935Y-73385798D01*
X128921663Y-73837900D01*
X129447368Y-74245943D01*
X129980142Y-74608653D01*
X130518077Y-74924755D01*
X131059264Y-75192975D01*
X131601794Y-75412038D01*
X131754033Y-75464510D01*
X132005792Y-75544513D01*
X132225296Y-75605323D01*
X132426320Y-75649238D01*
X132622640Y-75678552D01*
X132828031Y-75695563D01*
X133056270Y-75702567D01*
X133184900Y-75703029D01*
X133356833Y-75702039D01*
X133488339Y-75699619D01*
X133589790Y-75694728D01*
X133671557Y-75686324D01*
X133744011Y-75673364D01*
X133817525Y-75654805D01*
X133896100Y-75631557D01*
X134116705Y-75554679D01*
X134302780Y-75466437D01*
X134470567Y-75357139D01*
X134636308Y-75217097D01*
X134710101Y-75145900D01*
X134821087Y-75031609D01*
X134903600Y-74935533D01*
X134968330Y-74843531D01*
X135025967Y-74741463D01*
X135046119Y-74701400D01*
X135117701Y-74548441D01*
X135172211Y-74410787D01*
X135211836Y-74277284D01*
X135238764Y-74136780D01*
X135255181Y-73978120D01*
X135263273Y-73790153D01*
X135265247Y-73583800D01*
X135264339Y-73396836D01*
G36*
X134798468Y-69787974D02*
G01*
X134750030Y-69689979D01*
X134665056Y-69566154D01*
X134646312Y-69541315D01*
X134548103Y-69413590D01*
X134473853Y-69321106D01*
X134417371Y-69258218D01*
X134372468Y-69219280D01*
X134332952Y-69198646D01*
X134292633Y-69190673D01*
X134260638Y-69189600D01*
X134185255Y-69204175D01*
X134116369Y-69240679D01*
X134070633Y-69288281D01*
X134061200Y-69319313D01*
X134054079Y-69358282D01*
X134050089Y-69371673D01*
X134050085Y-69420947D01*
X134060929Y-69459837D01*
X134089588Y-69510220D01*
X134143062Y-69587810D01*
X134212721Y-69681583D01*
X134289934Y-69780509D01*
X134366069Y-69873563D01*
X134432495Y-69949717D01*
X134480581Y-69997944D01*
X134484852Y-70001443D01*
X134572668Y-70046604D01*
X134658999Y-70041276D01*
X134737964Y-69992992D01*
X134791095Y-69932878D01*
X134811710Y-69866739D01*
X134798468Y-69787974D01*
G37*
X134798468Y-69787974D02*
X134750030Y-69689979D01*
X134665056Y-69566154D01*
X134646312Y-69541315D01*
X134548103Y-69413590D01*
X134473853Y-69321106D01*
X134417371Y-69258218D01*
X134372468Y-69219280D01*
X134332952Y-69198646D01*
X134292633Y-69190673D01*
X134260638Y-69189600D01*
X134185255Y-69204175D01*
X134116369Y-69240679D01*
X134070633Y-69288281D01*
X134061200Y-69319313D01*
X134054079Y-69358282D01*
X134050089Y-69371673D01*
X134050085Y-69420947D01*
X134060929Y-69459837D01*
X134089588Y-69510220D01*
X134143062Y-69587810D01*
X134212721Y-69681583D01*
X134289934Y-69780509D01*
X134366069Y-69873563D01*
X134432495Y-69949717D01*
X134480581Y-69997944D01*
X134484852Y-70001443D01*
X134572668Y-70046604D01*
X134658999Y-70041276D01*
X134737964Y-69992992D01*
X134791095Y-69932878D01*
X134811710Y-69866739D01*
X134798468Y-69787974D01*
D11*
%TO.C,J2*%
X152206000Y-69529000D02*
X147006000Y-69529000D01*
X152206000Y-66929000D02*
X152206000Y-69529000D01*
X147006000Y-64329000D02*
X147006000Y-69529000D01*
X152206000Y-66929000D02*
X149606000Y-66929000D01*
X149606000Y-66929000D02*
X149606000Y-64329000D01*
X149606000Y-64329000D02*
X147006000Y-64329000D01*
X152206000Y-65659000D02*
X152206000Y-64329000D01*
X152206000Y-64329000D02*
X150876000Y-64329000D01*
%TO.C,J3*%
X152587000Y-109287000D02*
X151257000Y-109287000D01*
X152587000Y-110617000D02*
X152587000Y-109287000D01*
X149987000Y-109287000D02*
X147387000Y-109287000D01*
X149987000Y-111887000D02*
X149987000Y-109287000D01*
X152587000Y-111887000D02*
X149987000Y-111887000D01*
X147387000Y-109287000D02*
X147387000Y-114487000D01*
X152587000Y-111887000D02*
X152587000Y-114487000D01*
X152587000Y-114487000D02*
X147387000Y-114487000D01*
%TO.C,J2*%
D12*
X146002333Y-66381380D02*
X146002333Y-67095666D01*
X146049952Y-67238523D01*
X146145190Y-67333761D01*
X146288047Y-67381380D01*
X146383285Y-67381380D01*
X145573761Y-66476619D02*
X145526142Y-66429000D01*
X145430904Y-66381380D01*
X145192809Y-66381380D01*
X145097571Y-66429000D01*
X145049952Y-66476619D01*
X145002333Y-66571857D01*
X145002333Y-66667095D01*
X145049952Y-66809952D01*
X145621380Y-67381380D01*
X145002333Y-67381380D01*
%TO.C,J3*%
X146383333Y-111466380D02*
X146383333Y-112180666D01*
X146430952Y-112323523D01*
X146526190Y-112418761D01*
X146669047Y-112466380D01*
X146764285Y-112466380D01*
X146002380Y-111466380D02*
X145383333Y-111466380D01*
X145716666Y-111847333D01*
X145573809Y-111847333D01*
X145478571Y-111894952D01*
X145430952Y-111942571D01*
X145383333Y-112037809D01*
X145383333Y-112275904D01*
X145430952Y-112371142D01*
X145478571Y-112418761D01*
X145573809Y-112466380D01*
X145859523Y-112466380D01*
X145954761Y-112418761D01*
X146002380Y-112371142D01*
%TD*%
M02*
