%TF.GenerationSoftware,KiCad,Pcbnew,(5.1.10)-1*%
%TF.CreationDate,2021-12-27T15:37:09-03:00*%
%TF.ProjectId,pwr_supply,7077725f-7375-4707-906c-792e6b696361,rev?*%
%TF.SameCoordinates,Original*%
%TF.FileFunction,Copper,L2,Bot*%
%TF.FilePolarity,Positive*%
%FSLAX46Y46*%
G04 Gerber Fmt 4.6, Leading zero omitted, Abs format (unit mm)*
G04 Created by KiCad (PCBNEW (5.1.10)-1) date 2021-12-27 15:37:09*
%MOMM*%
%LPD*%
G01*
G04 APERTURE LIST*
%TA.AperFunction,ComponentPad*%
%ADD10C,2.000000*%
%TD*%
%TA.AperFunction,ComponentPad*%
%ADD11R,2.000000X2.000000*%
%TD*%
%TA.AperFunction,ComponentPad*%
%ADD12C,1.600000*%
%TD*%
%TA.AperFunction,ComponentPad*%
%ADD13R,1.600000X1.600000*%
%TD*%
%TA.AperFunction,ComponentPad*%
%ADD14O,2.200000X2.200000*%
%TD*%
%TA.AperFunction,ComponentPad*%
%ADD15R,2.200000X2.200000*%
%TD*%
%TA.AperFunction,ComponentPad*%
%ADD16C,1.800000*%
%TD*%
%TA.AperFunction,ComponentPad*%
%ADD17R,1.800000X1.800000*%
%TD*%
%TA.AperFunction,ComponentPad*%
%ADD18C,2.600000*%
%TD*%
%TA.AperFunction,ComponentPad*%
%ADD19R,2.600000X2.600000*%
%TD*%
%TA.AperFunction,ComponentPad*%
%ADD20O,1.700000X1.700000*%
%TD*%
%TA.AperFunction,ComponentPad*%
%ADD21R,1.700000X1.700000*%
%TD*%
%TA.AperFunction,ComponentPad*%
%ADD22O,1.600000X1.600000*%
%TD*%
%TA.AperFunction,ComponentPad*%
%ADD23C,1.900000*%
%TD*%
%TA.AperFunction,ComponentPad*%
%ADD24R,1.900000X1.900000*%
%TD*%
%TA.AperFunction,ComponentPad*%
%ADD25O,1.905000X2.000000*%
%TD*%
%TA.AperFunction,ComponentPad*%
%ADD26R,1.905000X2.000000*%
%TD*%
%TA.AperFunction,Conductor*%
%ADD27C,0.300000*%
%TD*%
%TA.AperFunction,Conductor*%
%ADD28C,0.254000*%
%TD*%
%TA.AperFunction,Conductor*%
%ADD29C,0.100000*%
%TD*%
G04 APERTURE END LIST*
D10*
%TO.P,C1,2*%
%TO.N,/GND*%
X131365000Y-70485000D03*
D11*
%TO.P,C1,1*%
%TO.N,/Vin*%
X126365000Y-70485000D03*
%TD*%
D12*
%TO.P,C2,2*%
%TO.N,/GND*%
X139660000Y-68580000D03*
D13*
%TO.P,C2,1*%
%TO.N,/Vout1*%
X137160000Y-68580000D03*
%TD*%
D14*
%TO.P,D1,2*%
%TO.N,Net-(D1-Pad2)*%
X136525000Y-96647000D03*
D15*
%TO.P,D1,1*%
%TO.N,/Vin*%
X126365000Y-96647000D03*
%TD*%
D14*
%TO.P,D2,2*%
%TO.N,/GND*%
X136525000Y-87249000D03*
D15*
%TO.P,D2,1*%
%TO.N,Net-(D1-Pad2)*%
X126365000Y-87249000D03*
%TD*%
%TO.P,D3,1*%
%TO.N,/Vin*%
X126365000Y-101346000D03*
D14*
%TO.P,D3,2*%
%TO.N,Net-(D3-Pad2)*%
X136525000Y-101346000D03*
%TD*%
D15*
%TO.P,D4,1*%
%TO.N,Net-(D3-Pad2)*%
X126365000Y-91948000D03*
D14*
%TO.P,D4,2*%
%TO.N,/GND*%
X136525000Y-91948000D03*
%TD*%
D16*
%TO.P,D5,2*%
%TO.N,Net-(D5-Pad2)*%
X144358000Y-98552000D03*
D17*
%TO.P,D5,1*%
%TO.N,/GND*%
X141818000Y-98552000D03*
%TD*%
%TO.P,D6,1*%
%TO.N,/GND*%
X141818000Y-79375000D03*
D16*
%TO.P,D6,2*%
%TO.N,Net-(D6-Pad2)*%
X144358000Y-79375000D03*
%TD*%
D18*
%TO.P,J1,3*%
%TO.N,Net-(J1-Pad3)*%
X134414000Y-113539000D03*
%TO.P,J1,2*%
%TO.N,Net-(D3-Pad2)*%
X131414000Y-108839000D03*
D19*
%TO.P,J1,1*%
%TO.N,Net-(D1-Pad2)*%
X137414000Y-108839000D03*
%TD*%
D20*
%TO.P,J2,4*%
%TO.N,/GND*%
X148336000Y-68199000D03*
%TO.P,J2,3*%
X150876000Y-68199000D03*
%TO.P,J2,2*%
%TO.N,/Vout2*%
X148336000Y-65659000D03*
D21*
%TO.P,J2,1*%
X150876000Y-65659000D03*
%TD*%
%TO.P,J3,1*%
%TO.N,/Vout2*%
X151257000Y-110617000D03*
D20*
%TO.P,J3,2*%
X148717000Y-110617000D03*
%TO.P,J3,3*%
%TO.N,/GND*%
X151257000Y-113157000D03*
%TO.P,J3,4*%
X148717000Y-113157000D03*
%TD*%
D22*
%TO.P,R1,2*%
%TO.N,Net-(D5-Pad2)*%
X142240000Y-103124000D03*
D12*
%TO.P,R1,1*%
%TO.N,/Vout1*%
X142240000Y-110744000D03*
%TD*%
%TO.P,R2,1*%
%TO.N,/Vout2*%
X136906000Y-73406000D03*
D22*
%TO.P,R2,2*%
%TO.N,Net-(D6-Pad2)*%
X136906000Y-81026000D03*
%TD*%
D23*
%TO.P,SW1,3*%
%TO.N,Net-(SW1-Pad3)*%
X143093000Y-86440000D03*
%TO.P,SW1,2*%
%TO.N,/Vout1*%
X143093000Y-88940000D03*
D24*
%TO.P,SW1,1*%
%TO.N,/Vout2*%
X143093000Y-91440000D03*
%TD*%
D25*
%TO.P,U1,3*%
%TO.N,/Vout1*%
X131191000Y-80518000D03*
%TO.P,U1,2*%
%TO.N,/GND*%
X128651000Y-80518000D03*
D26*
%TO.P,U1,1*%
%TO.N,/Vin*%
X126111000Y-80518000D03*
%TD*%
D27*
%TO.N,/GND*%
X151257000Y-113157000D02*
X148717000Y-113157000D01*
X131365000Y-77804000D02*
X128651000Y-80518000D01*
X131365000Y-70485000D02*
X131365000Y-77804000D01*
X131365000Y-70485000D02*
X135001000Y-66849000D01*
X137929000Y-66849000D02*
X139660000Y-68580000D01*
X135001000Y-66849000D02*
X137929000Y-66849000D01*
X141818000Y-70738000D02*
X139660000Y-68580000D01*
X141818000Y-79375000D02*
X141818000Y-70738000D01*
X141818000Y-96733000D02*
X141818000Y-98552000D01*
X136525000Y-91440000D02*
X141818000Y-96733000D01*
X136525000Y-84668000D02*
X141818000Y-79375000D01*
X136525000Y-87884000D02*
X136525000Y-84668000D01*
X136525000Y-87249000D02*
X136525000Y-91948000D01*
X147955000Y-68580000D02*
X148336000Y-68199000D01*
X139660000Y-68580000D02*
X147955000Y-68580000D01*
X148336000Y-68199000D02*
X150876000Y-68199000D01*
X141818000Y-98552000D02*
X141818000Y-99273000D01*
X141818000Y-99273000D02*
X145288000Y-102743000D01*
X145288000Y-109728000D02*
X148717000Y-113157000D01*
X145288000Y-102743000D02*
X145288000Y-109728000D01*
%TO.N,/Vout1*%
X137160000Y-68580000D02*
X137160000Y-68834000D01*
%TD*%
D28*
%TO.N,/GND*%
X152502000Y-69698000D02*
X146971419Y-69698000D01*
X146939000Y-69694807D01*
X146906581Y-69698000D01*
X146809617Y-69707550D01*
X146685207Y-69745290D01*
X146570550Y-69806575D01*
X146470052Y-69889052D01*
X146387575Y-69989550D01*
X146326290Y-70104207D01*
X146288550Y-70228617D01*
X146275807Y-70358000D01*
X146279001Y-70390429D01*
X146279000Y-108425581D01*
X146275807Y-108458000D01*
X146288550Y-108587383D01*
X146326290Y-108711793D01*
X146387575Y-108826450D01*
X146470052Y-108926948D01*
X146570550Y-109009425D01*
X146685207Y-109070710D01*
X146809617Y-109108450D01*
X146939000Y-109121193D01*
X146971419Y-109118000D01*
X152502001Y-109118000D01*
X152502001Y-109269706D01*
X152461494Y-109236463D01*
X152351180Y-109177498D01*
X152231482Y-109141188D01*
X152107000Y-109128928D01*
X150407000Y-109128928D01*
X150282518Y-109141188D01*
X150162820Y-109177498D01*
X150052506Y-109236463D01*
X149955815Y-109315815D01*
X149876463Y-109412506D01*
X149817498Y-109522820D01*
X149795487Y-109595380D01*
X149663632Y-109463525D01*
X149420411Y-109301010D01*
X149150158Y-109189068D01*
X148863260Y-109132000D01*
X148570740Y-109132000D01*
X148283842Y-109189068D01*
X148013589Y-109301010D01*
X147770368Y-109463525D01*
X147563525Y-109670368D01*
X147401010Y-109913589D01*
X147289068Y-110183842D01*
X147232000Y-110470740D01*
X147232000Y-110763260D01*
X147289068Y-111050158D01*
X147401010Y-111320411D01*
X147563525Y-111563632D01*
X147770368Y-111770475D01*
X147952534Y-111892195D01*
X147835645Y-111961822D01*
X147619412Y-112156731D01*
X147445359Y-112390080D01*
X147320175Y-112652901D01*
X147275524Y-112800110D01*
X147396845Y-113030000D01*
X148590000Y-113030000D01*
X148590000Y-113010000D01*
X148844000Y-113010000D01*
X148844000Y-113030000D01*
X151130000Y-113030000D01*
X151130000Y-113010000D01*
X151384000Y-113010000D01*
X151384000Y-113030000D01*
X151404000Y-113030000D01*
X151404000Y-113284000D01*
X151384000Y-113284000D01*
X151384000Y-114477814D01*
X151613891Y-114598481D01*
X151888252Y-114501157D01*
X152138355Y-114352178D01*
X152354588Y-114157269D01*
X152502000Y-113959637D01*
X152502000Y-114783000D01*
X135906504Y-114783000D01*
X135917013Y-114772491D01*
X136128775Y-114455566D01*
X136274639Y-114103419D01*
X136349000Y-113729581D01*
X136349000Y-113513890D01*
X147275524Y-113513890D01*
X147320175Y-113661099D01*
X147445359Y-113923920D01*
X147619412Y-114157269D01*
X147835645Y-114352178D01*
X148085748Y-114501157D01*
X148360109Y-114598481D01*
X148590000Y-114477814D01*
X148590000Y-113284000D01*
X148844000Y-113284000D01*
X148844000Y-114477814D01*
X149073891Y-114598481D01*
X149348252Y-114501157D01*
X149598355Y-114352178D01*
X149814588Y-114157269D01*
X149987000Y-113926120D01*
X150159412Y-114157269D01*
X150375645Y-114352178D01*
X150625748Y-114501157D01*
X150900109Y-114598481D01*
X151130000Y-114477814D01*
X151130000Y-113284000D01*
X148844000Y-113284000D01*
X148590000Y-113284000D01*
X147396845Y-113284000D01*
X147275524Y-113513890D01*
X136349000Y-113513890D01*
X136349000Y-113348419D01*
X136274639Y-112974581D01*
X136128775Y-112622434D01*
X135917013Y-112305509D01*
X135647491Y-112035987D01*
X135330566Y-111824225D01*
X134978419Y-111678361D01*
X134604581Y-111604000D01*
X134223419Y-111604000D01*
X133849581Y-111678361D01*
X133497434Y-111824225D01*
X133180509Y-112035987D01*
X132910987Y-112305509D01*
X132699225Y-112622434D01*
X132553361Y-112974581D01*
X132479000Y-113348419D01*
X132479000Y-113729581D01*
X132553361Y-114103419D01*
X132699225Y-114455566D01*
X132910987Y-114772491D01*
X132921496Y-114783000D01*
X123723000Y-114783000D01*
X123723000Y-108648419D01*
X129479000Y-108648419D01*
X129479000Y-109029581D01*
X129553361Y-109403419D01*
X129699225Y-109755566D01*
X129910987Y-110072491D01*
X130180509Y-110342013D01*
X130497434Y-110553775D01*
X130849581Y-110699639D01*
X131223419Y-110774000D01*
X131604581Y-110774000D01*
X131978419Y-110699639D01*
X132330566Y-110553775D01*
X132647491Y-110342013D01*
X132917013Y-110072491D01*
X133128775Y-109755566D01*
X133274639Y-109403419D01*
X133349000Y-109029581D01*
X133349000Y-108648419D01*
X133274639Y-108274581D01*
X133128775Y-107922434D01*
X132917013Y-107605509D01*
X132850504Y-107539000D01*
X135475928Y-107539000D01*
X135475928Y-110139000D01*
X135488188Y-110263482D01*
X135524498Y-110383180D01*
X135583463Y-110493494D01*
X135662815Y-110590185D01*
X135759506Y-110669537D01*
X135869820Y-110728502D01*
X135989518Y-110764812D01*
X136114000Y-110777072D01*
X138714000Y-110777072D01*
X138838482Y-110764812D01*
X138958180Y-110728502D01*
X139068494Y-110669537D01*
X139149978Y-110602665D01*
X140805000Y-110602665D01*
X140805000Y-110885335D01*
X140860147Y-111162574D01*
X140968320Y-111423727D01*
X141125363Y-111658759D01*
X141325241Y-111858637D01*
X141560273Y-112015680D01*
X141821426Y-112123853D01*
X142098665Y-112179000D01*
X142381335Y-112179000D01*
X142658574Y-112123853D01*
X142919727Y-112015680D01*
X143154759Y-111858637D01*
X143354637Y-111658759D01*
X143511680Y-111423727D01*
X143619853Y-111162574D01*
X143675000Y-110885335D01*
X143675000Y-110602665D01*
X143619853Y-110325426D01*
X143511680Y-110064273D01*
X143354637Y-109829241D01*
X143154759Y-109629363D01*
X142919727Y-109472320D01*
X142658574Y-109364147D01*
X142381335Y-109309000D01*
X142098665Y-109309000D01*
X141821426Y-109364147D01*
X141560273Y-109472320D01*
X141325241Y-109629363D01*
X141125363Y-109829241D01*
X140968320Y-110064273D01*
X140860147Y-110325426D01*
X140805000Y-110602665D01*
X139149978Y-110602665D01*
X139165185Y-110590185D01*
X139244537Y-110493494D01*
X139303502Y-110383180D01*
X139339812Y-110263482D01*
X139352072Y-110139000D01*
X139352072Y-107539000D01*
X139339812Y-107414518D01*
X139303502Y-107294820D01*
X139244537Y-107184506D01*
X139165185Y-107087815D01*
X139068494Y-107008463D01*
X138958180Y-106949498D01*
X138838482Y-106913188D01*
X138714000Y-106900928D01*
X136114000Y-106900928D01*
X135989518Y-106913188D01*
X135869820Y-106949498D01*
X135759506Y-107008463D01*
X135662815Y-107087815D01*
X135583463Y-107184506D01*
X135524498Y-107294820D01*
X135488188Y-107414518D01*
X135475928Y-107539000D01*
X132850504Y-107539000D01*
X132647491Y-107335987D01*
X132330566Y-107124225D01*
X131978419Y-106978361D01*
X131604581Y-106904000D01*
X131223419Y-106904000D01*
X130849581Y-106978361D01*
X130497434Y-107124225D01*
X130180509Y-107335987D01*
X129910987Y-107605509D01*
X129699225Y-107922434D01*
X129553361Y-108274581D01*
X129479000Y-108648419D01*
X123723000Y-108648419D01*
X123723000Y-100246000D01*
X124626928Y-100246000D01*
X124626928Y-102446000D01*
X124639188Y-102570482D01*
X124675498Y-102690180D01*
X124734463Y-102800494D01*
X124813815Y-102897185D01*
X124910506Y-102976537D01*
X125020820Y-103035502D01*
X125140518Y-103071812D01*
X125265000Y-103084072D01*
X127465000Y-103084072D01*
X127589482Y-103071812D01*
X127709180Y-103035502D01*
X127819494Y-102976537D01*
X127916185Y-102897185D01*
X127995537Y-102800494D01*
X128054502Y-102690180D01*
X128090812Y-102570482D01*
X128103072Y-102446000D01*
X128103072Y-101175117D01*
X134790000Y-101175117D01*
X134790000Y-101516883D01*
X134856675Y-101852081D01*
X134987463Y-102167831D01*
X135177337Y-102451998D01*
X135419002Y-102693663D01*
X135703169Y-102883537D01*
X136018919Y-103014325D01*
X136354117Y-103081000D01*
X136695883Y-103081000D01*
X137031081Y-103014325D01*
X137107514Y-102982665D01*
X140805000Y-102982665D01*
X140805000Y-103265335D01*
X140860147Y-103542574D01*
X140968320Y-103803727D01*
X141125363Y-104038759D01*
X141325241Y-104238637D01*
X141560273Y-104395680D01*
X141821426Y-104503853D01*
X142098665Y-104559000D01*
X142381335Y-104559000D01*
X142658574Y-104503853D01*
X142919727Y-104395680D01*
X143154759Y-104238637D01*
X143354637Y-104038759D01*
X143511680Y-103803727D01*
X143619853Y-103542574D01*
X143675000Y-103265335D01*
X143675000Y-102982665D01*
X143619853Y-102705426D01*
X143511680Y-102444273D01*
X143354637Y-102209241D01*
X143154759Y-102009363D01*
X142919727Y-101852320D01*
X142658574Y-101744147D01*
X142381335Y-101689000D01*
X142098665Y-101689000D01*
X141821426Y-101744147D01*
X141560273Y-101852320D01*
X141325241Y-102009363D01*
X141125363Y-102209241D01*
X140968320Y-102444273D01*
X140860147Y-102705426D01*
X140805000Y-102982665D01*
X137107514Y-102982665D01*
X137346831Y-102883537D01*
X137630998Y-102693663D01*
X137872663Y-102451998D01*
X138062537Y-102167831D01*
X138193325Y-101852081D01*
X138260000Y-101516883D01*
X138260000Y-101175117D01*
X138193325Y-100839919D01*
X138062537Y-100524169D01*
X137872663Y-100240002D01*
X137630998Y-99998337D01*
X137346831Y-99808463D01*
X137031081Y-99677675D01*
X136695883Y-99611000D01*
X136354117Y-99611000D01*
X136018919Y-99677675D01*
X135703169Y-99808463D01*
X135419002Y-99998337D01*
X135177337Y-100240002D01*
X134987463Y-100524169D01*
X134856675Y-100839919D01*
X134790000Y-101175117D01*
X128103072Y-101175117D01*
X128103072Y-100246000D01*
X128090812Y-100121518D01*
X128054502Y-100001820D01*
X127995537Y-99891506D01*
X127916185Y-99794815D01*
X127819494Y-99715463D01*
X127709180Y-99656498D01*
X127589482Y-99620188D01*
X127465000Y-99607928D01*
X125265000Y-99607928D01*
X125140518Y-99620188D01*
X125020820Y-99656498D01*
X124910506Y-99715463D01*
X124813815Y-99794815D01*
X124734463Y-99891506D01*
X124675498Y-100001820D01*
X124639188Y-100121518D01*
X124626928Y-100246000D01*
X123723000Y-100246000D01*
X123723000Y-99452000D01*
X140279928Y-99452000D01*
X140292188Y-99576482D01*
X140328498Y-99696180D01*
X140387463Y-99806494D01*
X140466815Y-99903185D01*
X140563506Y-99982537D01*
X140673820Y-100041502D01*
X140793518Y-100077812D01*
X140918000Y-100090072D01*
X141532250Y-100087000D01*
X141691000Y-99928250D01*
X141691000Y-98679000D01*
X140441750Y-98679000D01*
X140283000Y-98837750D01*
X140279928Y-99452000D01*
X123723000Y-99452000D01*
X123723000Y-95547000D01*
X124626928Y-95547000D01*
X124626928Y-97747000D01*
X124639188Y-97871482D01*
X124675498Y-97991180D01*
X124734463Y-98101494D01*
X124813815Y-98198185D01*
X124910506Y-98277537D01*
X125020820Y-98336502D01*
X125140518Y-98372812D01*
X125265000Y-98385072D01*
X127465000Y-98385072D01*
X127589482Y-98372812D01*
X127709180Y-98336502D01*
X127819494Y-98277537D01*
X127916185Y-98198185D01*
X127995537Y-98101494D01*
X128054502Y-97991180D01*
X128090812Y-97871482D01*
X128103072Y-97747000D01*
X128103072Y-96476117D01*
X134790000Y-96476117D01*
X134790000Y-96817883D01*
X134856675Y-97153081D01*
X134987463Y-97468831D01*
X135177337Y-97752998D01*
X135419002Y-97994663D01*
X135703169Y-98184537D01*
X136018919Y-98315325D01*
X136354117Y-98382000D01*
X136695883Y-98382000D01*
X137031081Y-98315325D01*
X137346831Y-98184537D01*
X137630998Y-97994663D01*
X137872663Y-97752998D01*
X137940147Y-97652000D01*
X140279928Y-97652000D01*
X140283000Y-98266250D01*
X140441750Y-98425000D01*
X141691000Y-98425000D01*
X141691000Y-97175750D01*
X141945000Y-97175750D01*
X141945000Y-98425000D01*
X141965000Y-98425000D01*
X141965000Y-98679000D01*
X141945000Y-98679000D01*
X141945000Y-99928250D01*
X142103750Y-100087000D01*
X142718000Y-100090072D01*
X142842482Y-100077812D01*
X142962180Y-100041502D01*
X143072494Y-99982537D01*
X143169185Y-99903185D01*
X143248537Y-99806494D01*
X143307502Y-99696180D01*
X143313056Y-99677873D01*
X143379495Y-99744312D01*
X143630905Y-99912299D01*
X143910257Y-100028011D01*
X144206816Y-100087000D01*
X144509184Y-100087000D01*
X144805743Y-100028011D01*
X145085095Y-99912299D01*
X145336505Y-99744312D01*
X145550312Y-99530505D01*
X145718299Y-99279095D01*
X145834011Y-98999743D01*
X145893000Y-98703184D01*
X145893000Y-98400816D01*
X145834011Y-98104257D01*
X145718299Y-97824905D01*
X145550312Y-97573495D01*
X145336505Y-97359688D01*
X145085095Y-97191701D01*
X144805743Y-97075989D01*
X144509184Y-97017000D01*
X144206816Y-97017000D01*
X143910257Y-97075989D01*
X143630905Y-97191701D01*
X143379495Y-97359688D01*
X143313056Y-97426127D01*
X143307502Y-97407820D01*
X143248537Y-97297506D01*
X143169185Y-97200815D01*
X143072494Y-97121463D01*
X142962180Y-97062498D01*
X142842482Y-97026188D01*
X142718000Y-97013928D01*
X142103750Y-97017000D01*
X141945000Y-97175750D01*
X141691000Y-97175750D01*
X141532250Y-97017000D01*
X140918000Y-97013928D01*
X140793518Y-97026188D01*
X140673820Y-97062498D01*
X140563506Y-97121463D01*
X140466815Y-97200815D01*
X140387463Y-97297506D01*
X140328498Y-97407820D01*
X140292188Y-97527518D01*
X140279928Y-97652000D01*
X137940147Y-97652000D01*
X138062537Y-97468831D01*
X138193325Y-97153081D01*
X138260000Y-96817883D01*
X138260000Y-96476117D01*
X138193325Y-96140919D01*
X138062537Y-95825169D01*
X137872663Y-95541002D01*
X137630998Y-95299337D01*
X137346831Y-95109463D01*
X137031081Y-94978675D01*
X136695883Y-94912000D01*
X136354117Y-94912000D01*
X136018919Y-94978675D01*
X135703169Y-95109463D01*
X135419002Y-95299337D01*
X135177337Y-95541002D01*
X134987463Y-95825169D01*
X134856675Y-96140919D01*
X134790000Y-96476117D01*
X128103072Y-96476117D01*
X128103072Y-95547000D01*
X128090812Y-95422518D01*
X128054502Y-95302820D01*
X127995537Y-95192506D01*
X127916185Y-95095815D01*
X127819494Y-95016463D01*
X127709180Y-94957498D01*
X127589482Y-94921188D01*
X127465000Y-94908928D01*
X125265000Y-94908928D01*
X125140518Y-94921188D01*
X125020820Y-94957498D01*
X124910506Y-95016463D01*
X124813815Y-95095815D01*
X124734463Y-95192506D01*
X124675498Y-95302820D01*
X124639188Y-95422518D01*
X124626928Y-95547000D01*
X123723000Y-95547000D01*
X123723000Y-90848000D01*
X124626928Y-90848000D01*
X124626928Y-93048000D01*
X124639188Y-93172482D01*
X124675498Y-93292180D01*
X124734463Y-93402494D01*
X124813815Y-93499185D01*
X124910506Y-93578537D01*
X125020820Y-93637502D01*
X125140518Y-93673812D01*
X125265000Y-93686072D01*
X127465000Y-93686072D01*
X127589482Y-93673812D01*
X127709180Y-93637502D01*
X127819494Y-93578537D01*
X127916185Y-93499185D01*
X127995537Y-93402494D01*
X128054502Y-93292180D01*
X128090812Y-93172482D01*
X128103072Y-93048000D01*
X128103072Y-92344122D01*
X134835825Y-92344122D01*
X134900425Y-92557094D01*
X135050469Y-92862329D01*
X135257178Y-93132427D01*
X135512609Y-93357008D01*
X135806946Y-93527442D01*
X136128877Y-93637179D01*
X136398000Y-93519600D01*
X136398000Y-92075000D01*
X136652000Y-92075000D01*
X136652000Y-93519600D01*
X136921123Y-93637179D01*
X137243054Y-93527442D01*
X137537391Y-93357008D01*
X137792822Y-93132427D01*
X137999531Y-92862329D01*
X138149575Y-92557094D01*
X138214175Y-92344122D01*
X138096125Y-92075000D01*
X136652000Y-92075000D01*
X136398000Y-92075000D01*
X134953875Y-92075000D01*
X134835825Y-92344122D01*
X128103072Y-92344122D01*
X128103072Y-91551878D01*
X134835825Y-91551878D01*
X134953875Y-91821000D01*
X136398000Y-91821000D01*
X136398000Y-90376400D01*
X136652000Y-90376400D01*
X136652000Y-91821000D01*
X138096125Y-91821000D01*
X138214175Y-91551878D01*
X138149575Y-91338906D01*
X137999531Y-91033671D01*
X137792822Y-90763573D01*
X137537391Y-90538992D01*
X137452783Y-90490000D01*
X141504928Y-90490000D01*
X141504928Y-92390000D01*
X141517188Y-92514482D01*
X141553498Y-92634180D01*
X141612463Y-92744494D01*
X141691815Y-92841185D01*
X141788506Y-92920537D01*
X141898820Y-92979502D01*
X142018518Y-93015812D01*
X142143000Y-93028072D01*
X144043000Y-93028072D01*
X144167482Y-93015812D01*
X144287180Y-92979502D01*
X144397494Y-92920537D01*
X144494185Y-92841185D01*
X144573537Y-92744494D01*
X144632502Y-92634180D01*
X144668812Y-92514482D01*
X144681072Y-92390000D01*
X144681072Y-90490000D01*
X144668812Y-90365518D01*
X144632502Y-90245820D01*
X144573537Y-90135506D01*
X144494185Y-90038815D01*
X144397494Y-89959463D01*
X144338979Y-89928186D01*
X144497609Y-89690779D01*
X144617089Y-89402327D01*
X144678000Y-89096109D01*
X144678000Y-88783891D01*
X144617089Y-88477673D01*
X144497609Y-88189221D01*
X144324150Y-87929621D01*
X144103379Y-87708850D01*
X144075168Y-87690000D01*
X144103379Y-87671150D01*
X144324150Y-87450379D01*
X144497609Y-87190779D01*
X144617089Y-86902327D01*
X144678000Y-86596109D01*
X144678000Y-86283891D01*
X144617089Y-85977673D01*
X144497609Y-85689221D01*
X144324150Y-85429621D01*
X144103379Y-85208850D01*
X143843779Y-85035391D01*
X143555327Y-84915911D01*
X143249109Y-84855000D01*
X142936891Y-84855000D01*
X142630673Y-84915911D01*
X142342221Y-85035391D01*
X142082621Y-85208850D01*
X141861850Y-85429621D01*
X141688391Y-85689221D01*
X141568911Y-85977673D01*
X141508000Y-86283891D01*
X141508000Y-86596109D01*
X141568911Y-86902327D01*
X141688391Y-87190779D01*
X141861850Y-87450379D01*
X142082621Y-87671150D01*
X142110832Y-87690000D01*
X142082621Y-87708850D01*
X141861850Y-87929621D01*
X141688391Y-88189221D01*
X141568911Y-88477673D01*
X141508000Y-88783891D01*
X141508000Y-89096109D01*
X141568911Y-89402327D01*
X141688391Y-89690779D01*
X141847021Y-89928186D01*
X141788506Y-89959463D01*
X141691815Y-90038815D01*
X141612463Y-90135506D01*
X141553498Y-90245820D01*
X141517188Y-90365518D01*
X141504928Y-90490000D01*
X137452783Y-90490000D01*
X137243054Y-90368558D01*
X136921123Y-90258821D01*
X136652000Y-90376400D01*
X136398000Y-90376400D01*
X136128877Y-90258821D01*
X135806946Y-90368558D01*
X135512609Y-90538992D01*
X135257178Y-90763573D01*
X135050469Y-91033671D01*
X134900425Y-91338906D01*
X134835825Y-91551878D01*
X128103072Y-91551878D01*
X128103072Y-90848000D01*
X128090812Y-90723518D01*
X128054502Y-90603820D01*
X127995537Y-90493506D01*
X127916185Y-90396815D01*
X127819494Y-90317463D01*
X127709180Y-90258498D01*
X127589482Y-90222188D01*
X127465000Y-90209928D01*
X125265000Y-90209928D01*
X125140518Y-90222188D01*
X125020820Y-90258498D01*
X124910506Y-90317463D01*
X124813815Y-90396815D01*
X124734463Y-90493506D01*
X124675498Y-90603820D01*
X124639188Y-90723518D01*
X124626928Y-90848000D01*
X123723000Y-90848000D01*
X123723000Y-86149000D01*
X124626928Y-86149000D01*
X124626928Y-88349000D01*
X124639188Y-88473482D01*
X124675498Y-88593180D01*
X124734463Y-88703494D01*
X124813815Y-88800185D01*
X124910506Y-88879537D01*
X125020820Y-88938502D01*
X125140518Y-88974812D01*
X125265000Y-88987072D01*
X127465000Y-88987072D01*
X127589482Y-88974812D01*
X127709180Y-88938502D01*
X127819494Y-88879537D01*
X127916185Y-88800185D01*
X127995537Y-88703494D01*
X128054502Y-88593180D01*
X128090812Y-88473482D01*
X128103072Y-88349000D01*
X128103072Y-87645122D01*
X134835825Y-87645122D01*
X134900425Y-87858094D01*
X135050469Y-88163329D01*
X135257178Y-88433427D01*
X135512609Y-88658008D01*
X135806946Y-88828442D01*
X136128877Y-88938179D01*
X136398000Y-88820600D01*
X136398000Y-87376000D01*
X136652000Y-87376000D01*
X136652000Y-88820600D01*
X136921123Y-88938179D01*
X137243054Y-88828442D01*
X137537391Y-88658008D01*
X137792822Y-88433427D01*
X137999531Y-88163329D01*
X138149575Y-87858094D01*
X138214175Y-87645122D01*
X138096125Y-87376000D01*
X136652000Y-87376000D01*
X136398000Y-87376000D01*
X134953875Y-87376000D01*
X134835825Y-87645122D01*
X128103072Y-87645122D01*
X128103072Y-86852878D01*
X134835825Y-86852878D01*
X134953875Y-87122000D01*
X136398000Y-87122000D01*
X136398000Y-85677400D01*
X136652000Y-85677400D01*
X136652000Y-87122000D01*
X138096125Y-87122000D01*
X138214175Y-86852878D01*
X138149575Y-86639906D01*
X137999531Y-86334671D01*
X137792822Y-86064573D01*
X137537391Y-85839992D01*
X137243054Y-85669558D01*
X136921123Y-85559821D01*
X136652000Y-85677400D01*
X136398000Y-85677400D01*
X136128877Y-85559821D01*
X135806946Y-85669558D01*
X135512609Y-85839992D01*
X135257178Y-86064573D01*
X135050469Y-86334671D01*
X134900425Y-86639906D01*
X134835825Y-86852878D01*
X128103072Y-86852878D01*
X128103072Y-86149000D01*
X128090812Y-86024518D01*
X128054502Y-85904820D01*
X127995537Y-85794506D01*
X127916185Y-85697815D01*
X127819494Y-85618463D01*
X127709180Y-85559498D01*
X127589482Y-85523188D01*
X127465000Y-85510928D01*
X125265000Y-85510928D01*
X125140518Y-85523188D01*
X125020820Y-85559498D01*
X124910506Y-85618463D01*
X124813815Y-85697815D01*
X124734463Y-85794506D01*
X124675498Y-85904820D01*
X124639188Y-86024518D01*
X124626928Y-86149000D01*
X123723000Y-86149000D01*
X123723000Y-79518000D01*
X124520428Y-79518000D01*
X124520428Y-81518000D01*
X124532688Y-81642482D01*
X124568998Y-81762180D01*
X124627963Y-81872494D01*
X124707315Y-81969185D01*
X124804006Y-82048537D01*
X124914320Y-82107502D01*
X125034018Y-82143812D01*
X125158500Y-82156072D01*
X127063500Y-82156072D01*
X127187982Y-82143812D01*
X127307680Y-82107502D01*
X127417994Y-82048537D01*
X127514685Y-81969185D01*
X127594037Y-81872494D01*
X127643059Y-81780781D01*
X127784077Y-81893969D01*
X128059906Y-82037571D01*
X128278020Y-82108563D01*
X128524000Y-81988594D01*
X128524000Y-80645000D01*
X128504000Y-80645000D01*
X128504000Y-80391000D01*
X128524000Y-80391000D01*
X128524000Y-79047406D01*
X128778000Y-79047406D01*
X128778000Y-80391000D01*
X128798000Y-80391000D01*
X128798000Y-80645000D01*
X128778000Y-80645000D01*
X128778000Y-81988594D01*
X129023980Y-82108563D01*
X129242094Y-82037571D01*
X129517923Y-81893969D01*
X129760437Y-81699315D01*
X129915837Y-81514101D01*
X130063037Y-81693463D01*
X130304766Y-81891845D01*
X130580552Y-82039255D01*
X130879797Y-82130030D01*
X131191000Y-82160681D01*
X131502204Y-82130030D01*
X131801449Y-82039255D01*
X132077235Y-81891845D01*
X132318963Y-81693463D01*
X132517345Y-81451734D01*
X132664755Y-81175948D01*
X132753114Y-80884665D01*
X135471000Y-80884665D01*
X135471000Y-81167335D01*
X135526147Y-81444574D01*
X135634320Y-81705727D01*
X135791363Y-81940759D01*
X135991241Y-82140637D01*
X136226273Y-82297680D01*
X136487426Y-82405853D01*
X136764665Y-82461000D01*
X137047335Y-82461000D01*
X137324574Y-82405853D01*
X137585727Y-82297680D01*
X137820759Y-82140637D01*
X138020637Y-81940759D01*
X138177680Y-81705727D01*
X138285853Y-81444574D01*
X138341000Y-81167335D01*
X138341000Y-80884665D01*
X138285853Y-80607426D01*
X138177680Y-80346273D01*
X138130058Y-80275000D01*
X140279928Y-80275000D01*
X140292188Y-80399482D01*
X140328498Y-80519180D01*
X140387463Y-80629494D01*
X140466815Y-80726185D01*
X140563506Y-80805537D01*
X140673820Y-80864502D01*
X140793518Y-80900812D01*
X140918000Y-80913072D01*
X141532250Y-80910000D01*
X141691000Y-80751250D01*
X141691000Y-79502000D01*
X140441750Y-79502000D01*
X140283000Y-79660750D01*
X140279928Y-80275000D01*
X138130058Y-80275000D01*
X138020637Y-80111241D01*
X137820759Y-79911363D01*
X137585727Y-79754320D01*
X137324574Y-79646147D01*
X137047335Y-79591000D01*
X136764665Y-79591000D01*
X136487426Y-79646147D01*
X136226273Y-79754320D01*
X135991241Y-79911363D01*
X135791363Y-80111241D01*
X135634320Y-80346273D01*
X135526147Y-80607426D01*
X135471000Y-80884665D01*
X132753114Y-80884665D01*
X132755530Y-80876703D01*
X132778500Y-80643485D01*
X132778500Y-80392514D01*
X132755530Y-80159296D01*
X132664755Y-79860051D01*
X132517345Y-79584265D01*
X132318963Y-79342537D01*
X132077234Y-79144155D01*
X131801448Y-78996745D01*
X131502203Y-78905970D01*
X131191000Y-78875319D01*
X130879796Y-78905970D01*
X130580551Y-78996745D01*
X130304765Y-79144155D01*
X130063037Y-79342537D01*
X129915838Y-79521900D01*
X129760437Y-79336685D01*
X129517923Y-79142031D01*
X129242094Y-78998429D01*
X129023980Y-78927437D01*
X128778000Y-79047406D01*
X128524000Y-79047406D01*
X128278020Y-78927437D01*
X128059906Y-78998429D01*
X127784077Y-79142031D01*
X127643059Y-79255219D01*
X127594037Y-79163506D01*
X127514685Y-79066815D01*
X127417994Y-78987463D01*
X127307680Y-78928498D01*
X127187982Y-78892188D01*
X127063500Y-78879928D01*
X125158500Y-78879928D01*
X125034018Y-78892188D01*
X124914320Y-78928498D01*
X124804006Y-78987463D01*
X124707315Y-79066815D01*
X124627963Y-79163506D01*
X124568998Y-79273820D01*
X124532688Y-79393518D01*
X124520428Y-79518000D01*
X123723000Y-79518000D01*
X123723000Y-78475000D01*
X140279928Y-78475000D01*
X140283000Y-79089250D01*
X140441750Y-79248000D01*
X141691000Y-79248000D01*
X141691000Y-77998750D01*
X141945000Y-77998750D01*
X141945000Y-79248000D01*
X141965000Y-79248000D01*
X141965000Y-79502000D01*
X141945000Y-79502000D01*
X141945000Y-80751250D01*
X142103750Y-80910000D01*
X142718000Y-80913072D01*
X142842482Y-80900812D01*
X142962180Y-80864502D01*
X143072494Y-80805537D01*
X143169185Y-80726185D01*
X143248537Y-80629494D01*
X143307502Y-80519180D01*
X143313056Y-80500873D01*
X143379495Y-80567312D01*
X143630905Y-80735299D01*
X143910257Y-80851011D01*
X144206816Y-80910000D01*
X144509184Y-80910000D01*
X144805743Y-80851011D01*
X145085095Y-80735299D01*
X145336505Y-80567312D01*
X145550312Y-80353505D01*
X145718299Y-80102095D01*
X145834011Y-79822743D01*
X145893000Y-79526184D01*
X145893000Y-79223816D01*
X145834011Y-78927257D01*
X145718299Y-78647905D01*
X145550312Y-78396495D01*
X145336505Y-78182688D01*
X145085095Y-78014701D01*
X144805743Y-77898989D01*
X144509184Y-77840000D01*
X144206816Y-77840000D01*
X143910257Y-77898989D01*
X143630905Y-78014701D01*
X143379495Y-78182688D01*
X143313056Y-78249127D01*
X143307502Y-78230820D01*
X143248537Y-78120506D01*
X143169185Y-78023815D01*
X143072494Y-77944463D01*
X142962180Y-77885498D01*
X142842482Y-77849188D01*
X142718000Y-77836928D01*
X142103750Y-77840000D01*
X141945000Y-77998750D01*
X141691000Y-77998750D01*
X141532250Y-77840000D01*
X140918000Y-77836928D01*
X140793518Y-77849188D01*
X140673820Y-77885498D01*
X140563506Y-77944463D01*
X140466815Y-78023815D01*
X140387463Y-78120506D01*
X140328498Y-78230820D01*
X140292188Y-78350518D01*
X140279928Y-78475000D01*
X123723000Y-78475000D01*
X123723000Y-73264665D01*
X135471000Y-73264665D01*
X135471000Y-73547335D01*
X135526147Y-73824574D01*
X135634320Y-74085727D01*
X135791363Y-74320759D01*
X135991241Y-74520637D01*
X136226273Y-74677680D01*
X136487426Y-74785853D01*
X136764665Y-74841000D01*
X137047335Y-74841000D01*
X137324574Y-74785853D01*
X137585727Y-74677680D01*
X137820759Y-74520637D01*
X138020637Y-74320759D01*
X138177680Y-74085727D01*
X138285853Y-73824574D01*
X138341000Y-73547335D01*
X138341000Y-73264665D01*
X138285853Y-72987426D01*
X138177680Y-72726273D01*
X138020637Y-72491241D01*
X137820759Y-72291363D01*
X137585727Y-72134320D01*
X137324574Y-72026147D01*
X137047335Y-71971000D01*
X136764665Y-71971000D01*
X136487426Y-72026147D01*
X136226273Y-72134320D01*
X135991241Y-72291363D01*
X135791363Y-72491241D01*
X135634320Y-72726273D01*
X135526147Y-72987426D01*
X135471000Y-73264665D01*
X123723000Y-73264665D01*
X123723000Y-69485000D01*
X124726928Y-69485000D01*
X124726928Y-71485000D01*
X124739188Y-71609482D01*
X124775498Y-71729180D01*
X124834463Y-71839494D01*
X124913815Y-71936185D01*
X125010506Y-72015537D01*
X125120820Y-72074502D01*
X125240518Y-72110812D01*
X125365000Y-72123072D01*
X127365000Y-72123072D01*
X127489482Y-72110812D01*
X127609180Y-72074502D01*
X127719494Y-72015537D01*
X127816185Y-71936185D01*
X127895537Y-71839494D01*
X127954502Y-71729180D01*
X127987496Y-71620413D01*
X130409192Y-71620413D01*
X130504956Y-71884814D01*
X130794571Y-72025704D01*
X131106108Y-72107384D01*
X131427595Y-72126718D01*
X131746675Y-72082961D01*
X132051088Y-71977795D01*
X132225044Y-71884814D01*
X132320808Y-71620413D01*
X131365000Y-70664605D01*
X130409192Y-71620413D01*
X127987496Y-71620413D01*
X127990812Y-71609482D01*
X128003072Y-71485000D01*
X128003072Y-70547595D01*
X129723282Y-70547595D01*
X129767039Y-70866675D01*
X129872205Y-71171088D01*
X129965186Y-71345044D01*
X130229587Y-71440808D01*
X131185395Y-70485000D01*
X131544605Y-70485000D01*
X132500413Y-71440808D01*
X132764814Y-71345044D01*
X132905704Y-71055429D01*
X132987384Y-70743892D01*
X133006718Y-70422405D01*
X132962961Y-70103325D01*
X132857795Y-69798912D01*
X132764814Y-69624956D01*
X132500413Y-69529192D01*
X131544605Y-70485000D01*
X131185395Y-70485000D01*
X130229587Y-69529192D01*
X129965186Y-69624956D01*
X129824296Y-69914571D01*
X129742616Y-70226108D01*
X129723282Y-70547595D01*
X128003072Y-70547595D01*
X128003072Y-69485000D01*
X127990812Y-69360518D01*
X127987497Y-69349587D01*
X130409192Y-69349587D01*
X131365000Y-70305395D01*
X132320808Y-69349587D01*
X132225044Y-69085186D01*
X131935429Y-68944296D01*
X131623892Y-68862616D01*
X131302405Y-68843282D01*
X130983325Y-68887039D01*
X130678912Y-68992205D01*
X130504956Y-69085186D01*
X130409192Y-69349587D01*
X127987497Y-69349587D01*
X127954502Y-69240820D01*
X127895537Y-69130506D01*
X127816185Y-69033815D01*
X127719494Y-68954463D01*
X127609180Y-68895498D01*
X127489482Y-68859188D01*
X127365000Y-68846928D01*
X125365000Y-68846928D01*
X125240518Y-68859188D01*
X125120820Y-68895498D01*
X125010506Y-68954463D01*
X124913815Y-69033815D01*
X124834463Y-69130506D01*
X124775498Y-69240820D01*
X124739188Y-69360518D01*
X124726928Y-69485000D01*
X123723000Y-69485000D01*
X123723000Y-67780000D01*
X135721928Y-67780000D01*
X135721928Y-69380000D01*
X135734188Y-69504482D01*
X135770498Y-69624180D01*
X135829463Y-69734494D01*
X135908815Y-69831185D01*
X136005506Y-69910537D01*
X136115820Y-69969502D01*
X136235518Y-70005812D01*
X136360000Y-70018072D01*
X137960000Y-70018072D01*
X138084482Y-70005812D01*
X138204180Y-69969502D01*
X138314494Y-69910537D01*
X138411185Y-69831185D01*
X138490537Y-69734494D01*
X138549502Y-69624180D01*
X138565117Y-69572702D01*
X138846903Y-69572702D01*
X138918486Y-69816671D01*
X139173996Y-69937571D01*
X139448184Y-70006300D01*
X139730512Y-70020217D01*
X140010130Y-69978787D01*
X140276292Y-69883603D01*
X140401514Y-69816671D01*
X140473097Y-69572702D01*
X139660000Y-68759605D01*
X138846903Y-69572702D01*
X138565117Y-69572702D01*
X138585812Y-69504482D01*
X138598072Y-69380000D01*
X138598072Y-69372785D01*
X138667298Y-69393097D01*
X139480395Y-68580000D01*
X139839605Y-68580000D01*
X140652702Y-69393097D01*
X140896671Y-69321514D01*
X141017571Y-69066004D01*
X141086300Y-68791816D01*
X141097929Y-68555890D01*
X146894524Y-68555890D01*
X146939175Y-68703099D01*
X147064359Y-68965920D01*
X147238412Y-69199269D01*
X147454645Y-69394178D01*
X147704748Y-69543157D01*
X147979109Y-69640481D01*
X148209000Y-69519814D01*
X148209000Y-68326000D01*
X148463000Y-68326000D01*
X148463000Y-69519814D01*
X148692891Y-69640481D01*
X148967252Y-69543157D01*
X149217355Y-69394178D01*
X149433588Y-69199269D01*
X149606000Y-68968120D01*
X149778412Y-69199269D01*
X149994645Y-69394178D01*
X150244748Y-69543157D01*
X150519109Y-69640481D01*
X150749000Y-69519814D01*
X150749000Y-68326000D01*
X151003000Y-68326000D01*
X151003000Y-69519814D01*
X151232891Y-69640481D01*
X151507252Y-69543157D01*
X151757355Y-69394178D01*
X151973588Y-69199269D01*
X152147641Y-68965920D01*
X152272825Y-68703099D01*
X152317476Y-68555890D01*
X152196155Y-68326000D01*
X151003000Y-68326000D01*
X150749000Y-68326000D01*
X148463000Y-68326000D01*
X148209000Y-68326000D01*
X147015845Y-68326000D01*
X146894524Y-68555890D01*
X141097929Y-68555890D01*
X141100217Y-68509488D01*
X141058787Y-68229870D01*
X140963603Y-67963708D01*
X140896671Y-67838486D01*
X140652702Y-67766903D01*
X139839605Y-68580000D01*
X139480395Y-68580000D01*
X138667298Y-67766903D01*
X138598072Y-67787215D01*
X138598072Y-67780000D01*
X138585812Y-67655518D01*
X138565118Y-67587298D01*
X138846903Y-67587298D01*
X139660000Y-68400395D01*
X140473097Y-67587298D01*
X140401514Y-67343329D01*
X140146004Y-67222429D01*
X139871816Y-67153700D01*
X139589488Y-67139783D01*
X139309870Y-67181213D01*
X139043708Y-67276397D01*
X138918486Y-67343329D01*
X138846903Y-67587298D01*
X138565118Y-67587298D01*
X138549502Y-67535820D01*
X138490537Y-67425506D01*
X138411185Y-67328815D01*
X138314494Y-67249463D01*
X138204180Y-67190498D01*
X138084482Y-67154188D01*
X137960000Y-67141928D01*
X136360000Y-67141928D01*
X136235518Y-67154188D01*
X136115820Y-67190498D01*
X136005506Y-67249463D01*
X135908815Y-67328815D01*
X135829463Y-67425506D01*
X135770498Y-67535820D01*
X135734188Y-67655518D01*
X135721928Y-67780000D01*
X123723000Y-67780000D01*
X123723000Y-65512740D01*
X146851000Y-65512740D01*
X146851000Y-65805260D01*
X146908068Y-66092158D01*
X147020010Y-66362411D01*
X147182525Y-66605632D01*
X147389368Y-66812475D01*
X147571534Y-66934195D01*
X147454645Y-67003822D01*
X147238412Y-67198731D01*
X147064359Y-67432080D01*
X146939175Y-67694901D01*
X146894524Y-67842110D01*
X147015845Y-68072000D01*
X148209000Y-68072000D01*
X148209000Y-68052000D01*
X148463000Y-68052000D01*
X148463000Y-68072000D01*
X150749000Y-68072000D01*
X150749000Y-68052000D01*
X151003000Y-68052000D01*
X151003000Y-68072000D01*
X152196155Y-68072000D01*
X152317476Y-67842110D01*
X152272825Y-67694901D01*
X152147641Y-67432080D01*
X151973588Y-67198731D01*
X151889534Y-67122966D01*
X151970180Y-67098502D01*
X152080494Y-67039537D01*
X152177185Y-66960185D01*
X152256537Y-66863494D01*
X152315502Y-66753180D01*
X152351812Y-66633482D01*
X152364072Y-66509000D01*
X152364072Y-64809000D01*
X152351812Y-64684518D01*
X152315502Y-64564820D01*
X152256537Y-64454506D01*
X152177185Y-64357815D01*
X152080494Y-64278463D01*
X151970180Y-64219498D01*
X151850482Y-64183188D01*
X151726000Y-64170928D01*
X150026000Y-64170928D01*
X149901518Y-64183188D01*
X149781820Y-64219498D01*
X149671506Y-64278463D01*
X149574815Y-64357815D01*
X149495463Y-64454506D01*
X149436498Y-64564820D01*
X149414487Y-64637380D01*
X149282632Y-64505525D01*
X149039411Y-64343010D01*
X148769158Y-64231068D01*
X148482260Y-64174000D01*
X148189740Y-64174000D01*
X147902842Y-64231068D01*
X147632589Y-64343010D01*
X147389368Y-64505525D01*
X147182525Y-64712368D01*
X147020010Y-64955589D01*
X146908068Y-65225842D01*
X146851000Y-65512740D01*
X123723000Y-65512740D01*
X123723000Y-64033000D01*
X152502001Y-64033000D01*
X152502000Y-69698000D01*
%TA.AperFunction,Conductor*%
D29*
G36*
X152502000Y-69698000D02*
G01*
X146971419Y-69698000D01*
X146939000Y-69694807D01*
X146906581Y-69698000D01*
X146809617Y-69707550D01*
X146685207Y-69745290D01*
X146570550Y-69806575D01*
X146470052Y-69889052D01*
X146387575Y-69989550D01*
X146326290Y-70104207D01*
X146288550Y-70228617D01*
X146275807Y-70358000D01*
X146279001Y-70390429D01*
X146279000Y-108425581D01*
X146275807Y-108458000D01*
X146288550Y-108587383D01*
X146326290Y-108711793D01*
X146387575Y-108826450D01*
X146470052Y-108926948D01*
X146570550Y-109009425D01*
X146685207Y-109070710D01*
X146809617Y-109108450D01*
X146939000Y-109121193D01*
X146971419Y-109118000D01*
X152502001Y-109118000D01*
X152502001Y-109269706D01*
X152461494Y-109236463D01*
X152351180Y-109177498D01*
X152231482Y-109141188D01*
X152107000Y-109128928D01*
X150407000Y-109128928D01*
X150282518Y-109141188D01*
X150162820Y-109177498D01*
X150052506Y-109236463D01*
X149955815Y-109315815D01*
X149876463Y-109412506D01*
X149817498Y-109522820D01*
X149795487Y-109595380D01*
X149663632Y-109463525D01*
X149420411Y-109301010D01*
X149150158Y-109189068D01*
X148863260Y-109132000D01*
X148570740Y-109132000D01*
X148283842Y-109189068D01*
X148013589Y-109301010D01*
X147770368Y-109463525D01*
X147563525Y-109670368D01*
X147401010Y-109913589D01*
X147289068Y-110183842D01*
X147232000Y-110470740D01*
X147232000Y-110763260D01*
X147289068Y-111050158D01*
X147401010Y-111320411D01*
X147563525Y-111563632D01*
X147770368Y-111770475D01*
X147952534Y-111892195D01*
X147835645Y-111961822D01*
X147619412Y-112156731D01*
X147445359Y-112390080D01*
X147320175Y-112652901D01*
X147275524Y-112800110D01*
X147396845Y-113030000D01*
X148590000Y-113030000D01*
X148590000Y-113010000D01*
X148844000Y-113010000D01*
X148844000Y-113030000D01*
X151130000Y-113030000D01*
X151130000Y-113010000D01*
X151384000Y-113010000D01*
X151384000Y-113030000D01*
X151404000Y-113030000D01*
X151404000Y-113284000D01*
X151384000Y-113284000D01*
X151384000Y-114477814D01*
X151613891Y-114598481D01*
X151888252Y-114501157D01*
X152138355Y-114352178D01*
X152354588Y-114157269D01*
X152502000Y-113959637D01*
X152502000Y-114783000D01*
X135906504Y-114783000D01*
X135917013Y-114772491D01*
X136128775Y-114455566D01*
X136274639Y-114103419D01*
X136349000Y-113729581D01*
X136349000Y-113513890D01*
X147275524Y-113513890D01*
X147320175Y-113661099D01*
X147445359Y-113923920D01*
X147619412Y-114157269D01*
X147835645Y-114352178D01*
X148085748Y-114501157D01*
X148360109Y-114598481D01*
X148590000Y-114477814D01*
X148590000Y-113284000D01*
X148844000Y-113284000D01*
X148844000Y-114477814D01*
X149073891Y-114598481D01*
X149348252Y-114501157D01*
X149598355Y-114352178D01*
X149814588Y-114157269D01*
X149987000Y-113926120D01*
X150159412Y-114157269D01*
X150375645Y-114352178D01*
X150625748Y-114501157D01*
X150900109Y-114598481D01*
X151130000Y-114477814D01*
X151130000Y-113284000D01*
X148844000Y-113284000D01*
X148590000Y-113284000D01*
X147396845Y-113284000D01*
X147275524Y-113513890D01*
X136349000Y-113513890D01*
X136349000Y-113348419D01*
X136274639Y-112974581D01*
X136128775Y-112622434D01*
X135917013Y-112305509D01*
X135647491Y-112035987D01*
X135330566Y-111824225D01*
X134978419Y-111678361D01*
X134604581Y-111604000D01*
X134223419Y-111604000D01*
X133849581Y-111678361D01*
X133497434Y-111824225D01*
X133180509Y-112035987D01*
X132910987Y-112305509D01*
X132699225Y-112622434D01*
X132553361Y-112974581D01*
X132479000Y-113348419D01*
X132479000Y-113729581D01*
X132553361Y-114103419D01*
X132699225Y-114455566D01*
X132910987Y-114772491D01*
X132921496Y-114783000D01*
X123723000Y-114783000D01*
X123723000Y-108648419D01*
X129479000Y-108648419D01*
X129479000Y-109029581D01*
X129553361Y-109403419D01*
X129699225Y-109755566D01*
X129910987Y-110072491D01*
X130180509Y-110342013D01*
X130497434Y-110553775D01*
X130849581Y-110699639D01*
X131223419Y-110774000D01*
X131604581Y-110774000D01*
X131978419Y-110699639D01*
X132330566Y-110553775D01*
X132647491Y-110342013D01*
X132917013Y-110072491D01*
X133128775Y-109755566D01*
X133274639Y-109403419D01*
X133349000Y-109029581D01*
X133349000Y-108648419D01*
X133274639Y-108274581D01*
X133128775Y-107922434D01*
X132917013Y-107605509D01*
X132850504Y-107539000D01*
X135475928Y-107539000D01*
X135475928Y-110139000D01*
X135488188Y-110263482D01*
X135524498Y-110383180D01*
X135583463Y-110493494D01*
X135662815Y-110590185D01*
X135759506Y-110669537D01*
X135869820Y-110728502D01*
X135989518Y-110764812D01*
X136114000Y-110777072D01*
X138714000Y-110777072D01*
X138838482Y-110764812D01*
X138958180Y-110728502D01*
X139068494Y-110669537D01*
X139149978Y-110602665D01*
X140805000Y-110602665D01*
X140805000Y-110885335D01*
X140860147Y-111162574D01*
X140968320Y-111423727D01*
X141125363Y-111658759D01*
X141325241Y-111858637D01*
X141560273Y-112015680D01*
X141821426Y-112123853D01*
X142098665Y-112179000D01*
X142381335Y-112179000D01*
X142658574Y-112123853D01*
X142919727Y-112015680D01*
X143154759Y-111858637D01*
X143354637Y-111658759D01*
X143511680Y-111423727D01*
X143619853Y-111162574D01*
X143675000Y-110885335D01*
X143675000Y-110602665D01*
X143619853Y-110325426D01*
X143511680Y-110064273D01*
X143354637Y-109829241D01*
X143154759Y-109629363D01*
X142919727Y-109472320D01*
X142658574Y-109364147D01*
X142381335Y-109309000D01*
X142098665Y-109309000D01*
X141821426Y-109364147D01*
X141560273Y-109472320D01*
X141325241Y-109629363D01*
X141125363Y-109829241D01*
X140968320Y-110064273D01*
X140860147Y-110325426D01*
X140805000Y-110602665D01*
X139149978Y-110602665D01*
X139165185Y-110590185D01*
X139244537Y-110493494D01*
X139303502Y-110383180D01*
X139339812Y-110263482D01*
X139352072Y-110139000D01*
X139352072Y-107539000D01*
X139339812Y-107414518D01*
X139303502Y-107294820D01*
X139244537Y-107184506D01*
X139165185Y-107087815D01*
X139068494Y-107008463D01*
X138958180Y-106949498D01*
X138838482Y-106913188D01*
X138714000Y-106900928D01*
X136114000Y-106900928D01*
X135989518Y-106913188D01*
X135869820Y-106949498D01*
X135759506Y-107008463D01*
X135662815Y-107087815D01*
X135583463Y-107184506D01*
X135524498Y-107294820D01*
X135488188Y-107414518D01*
X135475928Y-107539000D01*
X132850504Y-107539000D01*
X132647491Y-107335987D01*
X132330566Y-107124225D01*
X131978419Y-106978361D01*
X131604581Y-106904000D01*
X131223419Y-106904000D01*
X130849581Y-106978361D01*
X130497434Y-107124225D01*
X130180509Y-107335987D01*
X129910987Y-107605509D01*
X129699225Y-107922434D01*
X129553361Y-108274581D01*
X129479000Y-108648419D01*
X123723000Y-108648419D01*
X123723000Y-100246000D01*
X124626928Y-100246000D01*
X124626928Y-102446000D01*
X124639188Y-102570482D01*
X124675498Y-102690180D01*
X124734463Y-102800494D01*
X124813815Y-102897185D01*
X124910506Y-102976537D01*
X125020820Y-103035502D01*
X125140518Y-103071812D01*
X125265000Y-103084072D01*
X127465000Y-103084072D01*
X127589482Y-103071812D01*
X127709180Y-103035502D01*
X127819494Y-102976537D01*
X127916185Y-102897185D01*
X127995537Y-102800494D01*
X128054502Y-102690180D01*
X128090812Y-102570482D01*
X128103072Y-102446000D01*
X128103072Y-101175117D01*
X134790000Y-101175117D01*
X134790000Y-101516883D01*
X134856675Y-101852081D01*
X134987463Y-102167831D01*
X135177337Y-102451998D01*
X135419002Y-102693663D01*
X135703169Y-102883537D01*
X136018919Y-103014325D01*
X136354117Y-103081000D01*
X136695883Y-103081000D01*
X137031081Y-103014325D01*
X137107514Y-102982665D01*
X140805000Y-102982665D01*
X140805000Y-103265335D01*
X140860147Y-103542574D01*
X140968320Y-103803727D01*
X141125363Y-104038759D01*
X141325241Y-104238637D01*
X141560273Y-104395680D01*
X141821426Y-104503853D01*
X142098665Y-104559000D01*
X142381335Y-104559000D01*
X142658574Y-104503853D01*
X142919727Y-104395680D01*
X143154759Y-104238637D01*
X143354637Y-104038759D01*
X143511680Y-103803727D01*
X143619853Y-103542574D01*
X143675000Y-103265335D01*
X143675000Y-102982665D01*
X143619853Y-102705426D01*
X143511680Y-102444273D01*
X143354637Y-102209241D01*
X143154759Y-102009363D01*
X142919727Y-101852320D01*
X142658574Y-101744147D01*
X142381335Y-101689000D01*
X142098665Y-101689000D01*
X141821426Y-101744147D01*
X141560273Y-101852320D01*
X141325241Y-102009363D01*
X141125363Y-102209241D01*
X140968320Y-102444273D01*
X140860147Y-102705426D01*
X140805000Y-102982665D01*
X137107514Y-102982665D01*
X137346831Y-102883537D01*
X137630998Y-102693663D01*
X137872663Y-102451998D01*
X138062537Y-102167831D01*
X138193325Y-101852081D01*
X138260000Y-101516883D01*
X138260000Y-101175117D01*
X138193325Y-100839919D01*
X138062537Y-100524169D01*
X137872663Y-100240002D01*
X137630998Y-99998337D01*
X137346831Y-99808463D01*
X137031081Y-99677675D01*
X136695883Y-99611000D01*
X136354117Y-99611000D01*
X136018919Y-99677675D01*
X135703169Y-99808463D01*
X135419002Y-99998337D01*
X135177337Y-100240002D01*
X134987463Y-100524169D01*
X134856675Y-100839919D01*
X134790000Y-101175117D01*
X128103072Y-101175117D01*
X128103072Y-100246000D01*
X128090812Y-100121518D01*
X128054502Y-100001820D01*
X127995537Y-99891506D01*
X127916185Y-99794815D01*
X127819494Y-99715463D01*
X127709180Y-99656498D01*
X127589482Y-99620188D01*
X127465000Y-99607928D01*
X125265000Y-99607928D01*
X125140518Y-99620188D01*
X125020820Y-99656498D01*
X124910506Y-99715463D01*
X124813815Y-99794815D01*
X124734463Y-99891506D01*
X124675498Y-100001820D01*
X124639188Y-100121518D01*
X124626928Y-100246000D01*
X123723000Y-100246000D01*
X123723000Y-99452000D01*
X140279928Y-99452000D01*
X140292188Y-99576482D01*
X140328498Y-99696180D01*
X140387463Y-99806494D01*
X140466815Y-99903185D01*
X140563506Y-99982537D01*
X140673820Y-100041502D01*
X140793518Y-100077812D01*
X140918000Y-100090072D01*
X141532250Y-100087000D01*
X141691000Y-99928250D01*
X141691000Y-98679000D01*
X140441750Y-98679000D01*
X140283000Y-98837750D01*
X140279928Y-99452000D01*
X123723000Y-99452000D01*
X123723000Y-95547000D01*
X124626928Y-95547000D01*
X124626928Y-97747000D01*
X124639188Y-97871482D01*
X124675498Y-97991180D01*
X124734463Y-98101494D01*
X124813815Y-98198185D01*
X124910506Y-98277537D01*
X125020820Y-98336502D01*
X125140518Y-98372812D01*
X125265000Y-98385072D01*
X127465000Y-98385072D01*
X127589482Y-98372812D01*
X127709180Y-98336502D01*
X127819494Y-98277537D01*
X127916185Y-98198185D01*
X127995537Y-98101494D01*
X128054502Y-97991180D01*
X128090812Y-97871482D01*
X128103072Y-97747000D01*
X128103072Y-96476117D01*
X134790000Y-96476117D01*
X134790000Y-96817883D01*
X134856675Y-97153081D01*
X134987463Y-97468831D01*
X135177337Y-97752998D01*
X135419002Y-97994663D01*
X135703169Y-98184537D01*
X136018919Y-98315325D01*
X136354117Y-98382000D01*
X136695883Y-98382000D01*
X137031081Y-98315325D01*
X137346831Y-98184537D01*
X137630998Y-97994663D01*
X137872663Y-97752998D01*
X137940147Y-97652000D01*
X140279928Y-97652000D01*
X140283000Y-98266250D01*
X140441750Y-98425000D01*
X141691000Y-98425000D01*
X141691000Y-97175750D01*
X141945000Y-97175750D01*
X141945000Y-98425000D01*
X141965000Y-98425000D01*
X141965000Y-98679000D01*
X141945000Y-98679000D01*
X141945000Y-99928250D01*
X142103750Y-100087000D01*
X142718000Y-100090072D01*
X142842482Y-100077812D01*
X142962180Y-100041502D01*
X143072494Y-99982537D01*
X143169185Y-99903185D01*
X143248537Y-99806494D01*
X143307502Y-99696180D01*
X143313056Y-99677873D01*
X143379495Y-99744312D01*
X143630905Y-99912299D01*
X143910257Y-100028011D01*
X144206816Y-100087000D01*
X144509184Y-100087000D01*
X144805743Y-100028011D01*
X145085095Y-99912299D01*
X145336505Y-99744312D01*
X145550312Y-99530505D01*
X145718299Y-99279095D01*
X145834011Y-98999743D01*
X145893000Y-98703184D01*
X145893000Y-98400816D01*
X145834011Y-98104257D01*
X145718299Y-97824905D01*
X145550312Y-97573495D01*
X145336505Y-97359688D01*
X145085095Y-97191701D01*
X144805743Y-97075989D01*
X144509184Y-97017000D01*
X144206816Y-97017000D01*
X143910257Y-97075989D01*
X143630905Y-97191701D01*
X143379495Y-97359688D01*
X143313056Y-97426127D01*
X143307502Y-97407820D01*
X143248537Y-97297506D01*
X143169185Y-97200815D01*
X143072494Y-97121463D01*
X142962180Y-97062498D01*
X142842482Y-97026188D01*
X142718000Y-97013928D01*
X142103750Y-97017000D01*
X141945000Y-97175750D01*
X141691000Y-97175750D01*
X141532250Y-97017000D01*
X140918000Y-97013928D01*
X140793518Y-97026188D01*
X140673820Y-97062498D01*
X140563506Y-97121463D01*
X140466815Y-97200815D01*
X140387463Y-97297506D01*
X140328498Y-97407820D01*
X140292188Y-97527518D01*
X140279928Y-97652000D01*
X137940147Y-97652000D01*
X138062537Y-97468831D01*
X138193325Y-97153081D01*
X138260000Y-96817883D01*
X138260000Y-96476117D01*
X138193325Y-96140919D01*
X138062537Y-95825169D01*
X137872663Y-95541002D01*
X137630998Y-95299337D01*
X137346831Y-95109463D01*
X137031081Y-94978675D01*
X136695883Y-94912000D01*
X136354117Y-94912000D01*
X136018919Y-94978675D01*
X135703169Y-95109463D01*
X135419002Y-95299337D01*
X135177337Y-95541002D01*
X134987463Y-95825169D01*
X134856675Y-96140919D01*
X134790000Y-96476117D01*
X128103072Y-96476117D01*
X128103072Y-95547000D01*
X128090812Y-95422518D01*
X128054502Y-95302820D01*
X127995537Y-95192506D01*
X127916185Y-95095815D01*
X127819494Y-95016463D01*
X127709180Y-94957498D01*
X127589482Y-94921188D01*
X127465000Y-94908928D01*
X125265000Y-94908928D01*
X125140518Y-94921188D01*
X125020820Y-94957498D01*
X124910506Y-95016463D01*
X124813815Y-95095815D01*
X124734463Y-95192506D01*
X124675498Y-95302820D01*
X124639188Y-95422518D01*
X124626928Y-95547000D01*
X123723000Y-95547000D01*
X123723000Y-90848000D01*
X124626928Y-90848000D01*
X124626928Y-93048000D01*
X124639188Y-93172482D01*
X124675498Y-93292180D01*
X124734463Y-93402494D01*
X124813815Y-93499185D01*
X124910506Y-93578537D01*
X125020820Y-93637502D01*
X125140518Y-93673812D01*
X125265000Y-93686072D01*
X127465000Y-93686072D01*
X127589482Y-93673812D01*
X127709180Y-93637502D01*
X127819494Y-93578537D01*
X127916185Y-93499185D01*
X127995537Y-93402494D01*
X128054502Y-93292180D01*
X128090812Y-93172482D01*
X128103072Y-93048000D01*
X128103072Y-92344122D01*
X134835825Y-92344122D01*
X134900425Y-92557094D01*
X135050469Y-92862329D01*
X135257178Y-93132427D01*
X135512609Y-93357008D01*
X135806946Y-93527442D01*
X136128877Y-93637179D01*
X136398000Y-93519600D01*
X136398000Y-92075000D01*
X136652000Y-92075000D01*
X136652000Y-93519600D01*
X136921123Y-93637179D01*
X137243054Y-93527442D01*
X137537391Y-93357008D01*
X137792822Y-93132427D01*
X137999531Y-92862329D01*
X138149575Y-92557094D01*
X138214175Y-92344122D01*
X138096125Y-92075000D01*
X136652000Y-92075000D01*
X136398000Y-92075000D01*
X134953875Y-92075000D01*
X134835825Y-92344122D01*
X128103072Y-92344122D01*
X128103072Y-91551878D01*
X134835825Y-91551878D01*
X134953875Y-91821000D01*
X136398000Y-91821000D01*
X136398000Y-90376400D01*
X136652000Y-90376400D01*
X136652000Y-91821000D01*
X138096125Y-91821000D01*
X138214175Y-91551878D01*
X138149575Y-91338906D01*
X137999531Y-91033671D01*
X137792822Y-90763573D01*
X137537391Y-90538992D01*
X137452783Y-90490000D01*
X141504928Y-90490000D01*
X141504928Y-92390000D01*
X141517188Y-92514482D01*
X141553498Y-92634180D01*
X141612463Y-92744494D01*
X141691815Y-92841185D01*
X141788506Y-92920537D01*
X141898820Y-92979502D01*
X142018518Y-93015812D01*
X142143000Y-93028072D01*
X144043000Y-93028072D01*
X144167482Y-93015812D01*
X144287180Y-92979502D01*
X144397494Y-92920537D01*
X144494185Y-92841185D01*
X144573537Y-92744494D01*
X144632502Y-92634180D01*
X144668812Y-92514482D01*
X144681072Y-92390000D01*
X144681072Y-90490000D01*
X144668812Y-90365518D01*
X144632502Y-90245820D01*
X144573537Y-90135506D01*
X144494185Y-90038815D01*
X144397494Y-89959463D01*
X144338979Y-89928186D01*
X144497609Y-89690779D01*
X144617089Y-89402327D01*
X144678000Y-89096109D01*
X144678000Y-88783891D01*
X144617089Y-88477673D01*
X144497609Y-88189221D01*
X144324150Y-87929621D01*
X144103379Y-87708850D01*
X144075168Y-87690000D01*
X144103379Y-87671150D01*
X144324150Y-87450379D01*
X144497609Y-87190779D01*
X144617089Y-86902327D01*
X144678000Y-86596109D01*
X144678000Y-86283891D01*
X144617089Y-85977673D01*
X144497609Y-85689221D01*
X144324150Y-85429621D01*
X144103379Y-85208850D01*
X143843779Y-85035391D01*
X143555327Y-84915911D01*
X143249109Y-84855000D01*
X142936891Y-84855000D01*
X142630673Y-84915911D01*
X142342221Y-85035391D01*
X142082621Y-85208850D01*
X141861850Y-85429621D01*
X141688391Y-85689221D01*
X141568911Y-85977673D01*
X141508000Y-86283891D01*
X141508000Y-86596109D01*
X141568911Y-86902327D01*
X141688391Y-87190779D01*
X141861850Y-87450379D01*
X142082621Y-87671150D01*
X142110832Y-87690000D01*
X142082621Y-87708850D01*
X141861850Y-87929621D01*
X141688391Y-88189221D01*
X141568911Y-88477673D01*
X141508000Y-88783891D01*
X141508000Y-89096109D01*
X141568911Y-89402327D01*
X141688391Y-89690779D01*
X141847021Y-89928186D01*
X141788506Y-89959463D01*
X141691815Y-90038815D01*
X141612463Y-90135506D01*
X141553498Y-90245820D01*
X141517188Y-90365518D01*
X141504928Y-90490000D01*
X137452783Y-90490000D01*
X137243054Y-90368558D01*
X136921123Y-90258821D01*
X136652000Y-90376400D01*
X136398000Y-90376400D01*
X136128877Y-90258821D01*
X135806946Y-90368558D01*
X135512609Y-90538992D01*
X135257178Y-90763573D01*
X135050469Y-91033671D01*
X134900425Y-91338906D01*
X134835825Y-91551878D01*
X128103072Y-91551878D01*
X128103072Y-90848000D01*
X128090812Y-90723518D01*
X128054502Y-90603820D01*
X127995537Y-90493506D01*
X127916185Y-90396815D01*
X127819494Y-90317463D01*
X127709180Y-90258498D01*
X127589482Y-90222188D01*
X127465000Y-90209928D01*
X125265000Y-90209928D01*
X125140518Y-90222188D01*
X125020820Y-90258498D01*
X124910506Y-90317463D01*
X124813815Y-90396815D01*
X124734463Y-90493506D01*
X124675498Y-90603820D01*
X124639188Y-90723518D01*
X124626928Y-90848000D01*
X123723000Y-90848000D01*
X123723000Y-86149000D01*
X124626928Y-86149000D01*
X124626928Y-88349000D01*
X124639188Y-88473482D01*
X124675498Y-88593180D01*
X124734463Y-88703494D01*
X124813815Y-88800185D01*
X124910506Y-88879537D01*
X125020820Y-88938502D01*
X125140518Y-88974812D01*
X125265000Y-88987072D01*
X127465000Y-88987072D01*
X127589482Y-88974812D01*
X127709180Y-88938502D01*
X127819494Y-88879537D01*
X127916185Y-88800185D01*
X127995537Y-88703494D01*
X128054502Y-88593180D01*
X128090812Y-88473482D01*
X128103072Y-88349000D01*
X128103072Y-87645122D01*
X134835825Y-87645122D01*
X134900425Y-87858094D01*
X135050469Y-88163329D01*
X135257178Y-88433427D01*
X135512609Y-88658008D01*
X135806946Y-88828442D01*
X136128877Y-88938179D01*
X136398000Y-88820600D01*
X136398000Y-87376000D01*
X136652000Y-87376000D01*
X136652000Y-88820600D01*
X136921123Y-88938179D01*
X137243054Y-88828442D01*
X137537391Y-88658008D01*
X137792822Y-88433427D01*
X137999531Y-88163329D01*
X138149575Y-87858094D01*
X138214175Y-87645122D01*
X138096125Y-87376000D01*
X136652000Y-87376000D01*
X136398000Y-87376000D01*
X134953875Y-87376000D01*
X134835825Y-87645122D01*
X128103072Y-87645122D01*
X128103072Y-86852878D01*
X134835825Y-86852878D01*
X134953875Y-87122000D01*
X136398000Y-87122000D01*
X136398000Y-85677400D01*
X136652000Y-85677400D01*
X136652000Y-87122000D01*
X138096125Y-87122000D01*
X138214175Y-86852878D01*
X138149575Y-86639906D01*
X137999531Y-86334671D01*
X137792822Y-86064573D01*
X137537391Y-85839992D01*
X137243054Y-85669558D01*
X136921123Y-85559821D01*
X136652000Y-85677400D01*
X136398000Y-85677400D01*
X136128877Y-85559821D01*
X135806946Y-85669558D01*
X135512609Y-85839992D01*
X135257178Y-86064573D01*
X135050469Y-86334671D01*
X134900425Y-86639906D01*
X134835825Y-86852878D01*
X128103072Y-86852878D01*
X128103072Y-86149000D01*
X128090812Y-86024518D01*
X128054502Y-85904820D01*
X127995537Y-85794506D01*
X127916185Y-85697815D01*
X127819494Y-85618463D01*
X127709180Y-85559498D01*
X127589482Y-85523188D01*
X127465000Y-85510928D01*
X125265000Y-85510928D01*
X125140518Y-85523188D01*
X125020820Y-85559498D01*
X124910506Y-85618463D01*
X124813815Y-85697815D01*
X124734463Y-85794506D01*
X124675498Y-85904820D01*
X124639188Y-86024518D01*
X124626928Y-86149000D01*
X123723000Y-86149000D01*
X123723000Y-79518000D01*
X124520428Y-79518000D01*
X124520428Y-81518000D01*
X124532688Y-81642482D01*
X124568998Y-81762180D01*
X124627963Y-81872494D01*
X124707315Y-81969185D01*
X124804006Y-82048537D01*
X124914320Y-82107502D01*
X125034018Y-82143812D01*
X125158500Y-82156072D01*
X127063500Y-82156072D01*
X127187982Y-82143812D01*
X127307680Y-82107502D01*
X127417994Y-82048537D01*
X127514685Y-81969185D01*
X127594037Y-81872494D01*
X127643059Y-81780781D01*
X127784077Y-81893969D01*
X128059906Y-82037571D01*
X128278020Y-82108563D01*
X128524000Y-81988594D01*
X128524000Y-80645000D01*
X128504000Y-80645000D01*
X128504000Y-80391000D01*
X128524000Y-80391000D01*
X128524000Y-79047406D01*
X128778000Y-79047406D01*
X128778000Y-80391000D01*
X128798000Y-80391000D01*
X128798000Y-80645000D01*
X128778000Y-80645000D01*
X128778000Y-81988594D01*
X129023980Y-82108563D01*
X129242094Y-82037571D01*
X129517923Y-81893969D01*
X129760437Y-81699315D01*
X129915837Y-81514101D01*
X130063037Y-81693463D01*
X130304766Y-81891845D01*
X130580552Y-82039255D01*
X130879797Y-82130030D01*
X131191000Y-82160681D01*
X131502204Y-82130030D01*
X131801449Y-82039255D01*
X132077235Y-81891845D01*
X132318963Y-81693463D01*
X132517345Y-81451734D01*
X132664755Y-81175948D01*
X132753114Y-80884665D01*
X135471000Y-80884665D01*
X135471000Y-81167335D01*
X135526147Y-81444574D01*
X135634320Y-81705727D01*
X135791363Y-81940759D01*
X135991241Y-82140637D01*
X136226273Y-82297680D01*
X136487426Y-82405853D01*
X136764665Y-82461000D01*
X137047335Y-82461000D01*
X137324574Y-82405853D01*
X137585727Y-82297680D01*
X137820759Y-82140637D01*
X138020637Y-81940759D01*
X138177680Y-81705727D01*
X138285853Y-81444574D01*
X138341000Y-81167335D01*
X138341000Y-80884665D01*
X138285853Y-80607426D01*
X138177680Y-80346273D01*
X138130058Y-80275000D01*
X140279928Y-80275000D01*
X140292188Y-80399482D01*
X140328498Y-80519180D01*
X140387463Y-80629494D01*
X140466815Y-80726185D01*
X140563506Y-80805537D01*
X140673820Y-80864502D01*
X140793518Y-80900812D01*
X140918000Y-80913072D01*
X141532250Y-80910000D01*
X141691000Y-80751250D01*
X141691000Y-79502000D01*
X140441750Y-79502000D01*
X140283000Y-79660750D01*
X140279928Y-80275000D01*
X138130058Y-80275000D01*
X138020637Y-80111241D01*
X137820759Y-79911363D01*
X137585727Y-79754320D01*
X137324574Y-79646147D01*
X137047335Y-79591000D01*
X136764665Y-79591000D01*
X136487426Y-79646147D01*
X136226273Y-79754320D01*
X135991241Y-79911363D01*
X135791363Y-80111241D01*
X135634320Y-80346273D01*
X135526147Y-80607426D01*
X135471000Y-80884665D01*
X132753114Y-80884665D01*
X132755530Y-80876703D01*
X132778500Y-80643485D01*
X132778500Y-80392514D01*
X132755530Y-80159296D01*
X132664755Y-79860051D01*
X132517345Y-79584265D01*
X132318963Y-79342537D01*
X132077234Y-79144155D01*
X131801448Y-78996745D01*
X131502203Y-78905970D01*
X131191000Y-78875319D01*
X130879796Y-78905970D01*
X130580551Y-78996745D01*
X130304765Y-79144155D01*
X130063037Y-79342537D01*
X129915838Y-79521900D01*
X129760437Y-79336685D01*
X129517923Y-79142031D01*
X129242094Y-78998429D01*
X129023980Y-78927437D01*
X128778000Y-79047406D01*
X128524000Y-79047406D01*
X128278020Y-78927437D01*
X128059906Y-78998429D01*
X127784077Y-79142031D01*
X127643059Y-79255219D01*
X127594037Y-79163506D01*
X127514685Y-79066815D01*
X127417994Y-78987463D01*
X127307680Y-78928498D01*
X127187982Y-78892188D01*
X127063500Y-78879928D01*
X125158500Y-78879928D01*
X125034018Y-78892188D01*
X124914320Y-78928498D01*
X124804006Y-78987463D01*
X124707315Y-79066815D01*
X124627963Y-79163506D01*
X124568998Y-79273820D01*
X124532688Y-79393518D01*
X124520428Y-79518000D01*
X123723000Y-79518000D01*
X123723000Y-78475000D01*
X140279928Y-78475000D01*
X140283000Y-79089250D01*
X140441750Y-79248000D01*
X141691000Y-79248000D01*
X141691000Y-77998750D01*
X141945000Y-77998750D01*
X141945000Y-79248000D01*
X141965000Y-79248000D01*
X141965000Y-79502000D01*
X141945000Y-79502000D01*
X141945000Y-80751250D01*
X142103750Y-80910000D01*
X142718000Y-80913072D01*
X142842482Y-80900812D01*
X142962180Y-80864502D01*
X143072494Y-80805537D01*
X143169185Y-80726185D01*
X143248537Y-80629494D01*
X143307502Y-80519180D01*
X143313056Y-80500873D01*
X143379495Y-80567312D01*
X143630905Y-80735299D01*
X143910257Y-80851011D01*
X144206816Y-80910000D01*
X144509184Y-80910000D01*
X144805743Y-80851011D01*
X145085095Y-80735299D01*
X145336505Y-80567312D01*
X145550312Y-80353505D01*
X145718299Y-80102095D01*
X145834011Y-79822743D01*
X145893000Y-79526184D01*
X145893000Y-79223816D01*
X145834011Y-78927257D01*
X145718299Y-78647905D01*
X145550312Y-78396495D01*
X145336505Y-78182688D01*
X145085095Y-78014701D01*
X144805743Y-77898989D01*
X144509184Y-77840000D01*
X144206816Y-77840000D01*
X143910257Y-77898989D01*
X143630905Y-78014701D01*
X143379495Y-78182688D01*
X143313056Y-78249127D01*
X143307502Y-78230820D01*
X143248537Y-78120506D01*
X143169185Y-78023815D01*
X143072494Y-77944463D01*
X142962180Y-77885498D01*
X142842482Y-77849188D01*
X142718000Y-77836928D01*
X142103750Y-77840000D01*
X141945000Y-77998750D01*
X141691000Y-77998750D01*
X141532250Y-77840000D01*
X140918000Y-77836928D01*
X140793518Y-77849188D01*
X140673820Y-77885498D01*
X140563506Y-77944463D01*
X140466815Y-78023815D01*
X140387463Y-78120506D01*
X140328498Y-78230820D01*
X140292188Y-78350518D01*
X140279928Y-78475000D01*
X123723000Y-78475000D01*
X123723000Y-73264665D01*
X135471000Y-73264665D01*
X135471000Y-73547335D01*
X135526147Y-73824574D01*
X135634320Y-74085727D01*
X135791363Y-74320759D01*
X135991241Y-74520637D01*
X136226273Y-74677680D01*
X136487426Y-74785853D01*
X136764665Y-74841000D01*
X137047335Y-74841000D01*
X137324574Y-74785853D01*
X137585727Y-74677680D01*
X137820759Y-74520637D01*
X138020637Y-74320759D01*
X138177680Y-74085727D01*
X138285853Y-73824574D01*
X138341000Y-73547335D01*
X138341000Y-73264665D01*
X138285853Y-72987426D01*
X138177680Y-72726273D01*
X138020637Y-72491241D01*
X137820759Y-72291363D01*
X137585727Y-72134320D01*
X137324574Y-72026147D01*
X137047335Y-71971000D01*
X136764665Y-71971000D01*
X136487426Y-72026147D01*
X136226273Y-72134320D01*
X135991241Y-72291363D01*
X135791363Y-72491241D01*
X135634320Y-72726273D01*
X135526147Y-72987426D01*
X135471000Y-73264665D01*
X123723000Y-73264665D01*
X123723000Y-69485000D01*
X124726928Y-69485000D01*
X124726928Y-71485000D01*
X124739188Y-71609482D01*
X124775498Y-71729180D01*
X124834463Y-71839494D01*
X124913815Y-71936185D01*
X125010506Y-72015537D01*
X125120820Y-72074502D01*
X125240518Y-72110812D01*
X125365000Y-72123072D01*
X127365000Y-72123072D01*
X127489482Y-72110812D01*
X127609180Y-72074502D01*
X127719494Y-72015537D01*
X127816185Y-71936185D01*
X127895537Y-71839494D01*
X127954502Y-71729180D01*
X127987496Y-71620413D01*
X130409192Y-71620413D01*
X130504956Y-71884814D01*
X130794571Y-72025704D01*
X131106108Y-72107384D01*
X131427595Y-72126718D01*
X131746675Y-72082961D01*
X132051088Y-71977795D01*
X132225044Y-71884814D01*
X132320808Y-71620413D01*
X131365000Y-70664605D01*
X130409192Y-71620413D01*
X127987496Y-71620413D01*
X127990812Y-71609482D01*
X128003072Y-71485000D01*
X128003072Y-70547595D01*
X129723282Y-70547595D01*
X129767039Y-70866675D01*
X129872205Y-71171088D01*
X129965186Y-71345044D01*
X130229587Y-71440808D01*
X131185395Y-70485000D01*
X131544605Y-70485000D01*
X132500413Y-71440808D01*
X132764814Y-71345044D01*
X132905704Y-71055429D01*
X132987384Y-70743892D01*
X133006718Y-70422405D01*
X132962961Y-70103325D01*
X132857795Y-69798912D01*
X132764814Y-69624956D01*
X132500413Y-69529192D01*
X131544605Y-70485000D01*
X131185395Y-70485000D01*
X130229587Y-69529192D01*
X129965186Y-69624956D01*
X129824296Y-69914571D01*
X129742616Y-70226108D01*
X129723282Y-70547595D01*
X128003072Y-70547595D01*
X128003072Y-69485000D01*
X127990812Y-69360518D01*
X127987497Y-69349587D01*
X130409192Y-69349587D01*
X131365000Y-70305395D01*
X132320808Y-69349587D01*
X132225044Y-69085186D01*
X131935429Y-68944296D01*
X131623892Y-68862616D01*
X131302405Y-68843282D01*
X130983325Y-68887039D01*
X130678912Y-68992205D01*
X130504956Y-69085186D01*
X130409192Y-69349587D01*
X127987497Y-69349587D01*
X127954502Y-69240820D01*
X127895537Y-69130506D01*
X127816185Y-69033815D01*
X127719494Y-68954463D01*
X127609180Y-68895498D01*
X127489482Y-68859188D01*
X127365000Y-68846928D01*
X125365000Y-68846928D01*
X125240518Y-68859188D01*
X125120820Y-68895498D01*
X125010506Y-68954463D01*
X124913815Y-69033815D01*
X124834463Y-69130506D01*
X124775498Y-69240820D01*
X124739188Y-69360518D01*
X124726928Y-69485000D01*
X123723000Y-69485000D01*
X123723000Y-67780000D01*
X135721928Y-67780000D01*
X135721928Y-69380000D01*
X135734188Y-69504482D01*
X135770498Y-69624180D01*
X135829463Y-69734494D01*
X135908815Y-69831185D01*
X136005506Y-69910537D01*
X136115820Y-69969502D01*
X136235518Y-70005812D01*
X136360000Y-70018072D01*
X137960000Y-70018072D01*
X138084482Y-70005812D01*
X138204180Y-69969502D01*
X138314494Y-69910537D01*
X138411185Y-69831185D01*
X138490537Y-69734494D01*
X138549502Y-69624180D01*
X138565117Y-69572702D01*
X138846903Y-69572702D01*
X138918486Y-69816671D01*
X139173996Y-69937571D01*
X139448184Y-70006300D01*
X139730512Y-70020217D01*
X140010130Y-69978787D01*
X140276292Y-69883603D01*
X140401514Y-69816671D01*
X140473097Y-69572702D01*
X139660000Y-68759605D01*
X138846903Y-69572702D01*
X138565117Y-69572702D01*
X138585812Y-69504482D01*
X138598072Y-69380000D01*
X138598072Y-69372785D01*
X138667298Y-69393097D01*
X139480395Y-68580000D01*
X139839605Y-68580000D01*
X140652702Y-69393097D01*
X140896671Y-69321514D01*
X141017571Y-69066004D01*
X141086300Y-68791816D01*
X141097929Y-68555890D01*
X146894524Y-68555890D01*
X146939175Y-68703099D01*
X147064359Y-68965920D01*
X147238412Y-69199269D01*
X147454645Y-69394178D01*
X147704748Y-69543157D01*
X147979109Y-69640481D01*
X148209000Y-69519814D01*
X148209000Y-68326000D01*
X148463000Y-68326000D01*
X148463000Y-69519814D01*
X148692891Y-69640481D01*
X148967252Y-69543157D01*
X149217355Y-69394178D01*
X149433588Y-69199269D01*
X149606000Y-68968120D01*
X149778412Y-69199269D01*
X149994645Y-69394178D01*
X150244748Y-69543157D01*
X150519109Y-69640481D01*
X150749000Y-69519814D01*
X150749000Y-68326000D01*
X151003000Y-68326000D01*
X151003000Y-69519814D01*
X151232891Y-69640481D01*
X151507252Y-69543157D01*
X151757355Y-69394178D01*
X151973588Y-69199269D01*
X152147641Y-68965920D01*
X152272825Y-68703099D01*
X152317476Y-68555890D01*
X152196155Y-68326000D01*
X151003000Y-68326000D01*
X150749000Y-68326000D01*
X148463000Y-68326000D01*
X148209000Y-68326000D01*
X147015845Y-68326000D01*
X146894524Y-68555890D01*
X141097929Y-68555890D01*
X141100217Y-68509488D01*
X141058787Y-68229870D01*
X140963603Y-67963708D01*
X140896671Y-67838486D01*
X140652702Y-67766903D01*
X139839605Y-68580000D01*
X139480395Y-68580000D01*
X138667298Y-67766903D01*
X138598072Y-67787215D01*
X138598072Y-67780000D01*
X138585812Y-67655518D01*
X138565118Y-67587298D01*
X138846903Y-67587298D01*
X139660000Y-68400395D01*
X140473097Y-67587298D01*
X140401514Y-67343329D01*
X140146004Y-67222429D01*
X139871816Y-67153700D01*
X139589488Y-67139783D01*
X139309870Y-67181213D01*
X139043708Y-67276397D01*
X138918486Y-67343329D01*
X138846903Y-67587298D01*
X138565118Y-67587298D01*
X138549502Y-67535820D01*
X138490537Y-67425506D01*
X138411185Y-67328815D01*
X138314494Y-67249463D01*
X138204180Y-67190498D01*
X138084482Y-67154188D01*
X137960000Y-67141928D01*
X136360000Y-67141928D01*
X136235518Y-67154188D01*
X136115820Y-67190498D01*
X136005506Y-67249463D01*
X135908815Y-67328815D01*
X135829463Y-67425506D01*
X135770498Y-67535820D01*
X135734188Y-67655518D01*
X135721928Y-67780000D01*
X123723000Y-67780000D01*
X123723000Y-65512740D01*
X146851000Y-65512740D01*
X146851000Y-65805260D01*
X146908068Y-66092158D01*
X147020010Y-66362411D01*
X147182525Y-66605632D01*
X147389368Y-66812475D01*
X147571534Y-66934195D01*
X147454645Y-67003822D01*
X147238412Y-67198731D01*
X147064359Y-67432080D01*
X146939175Y-67694901D01*
X146894524Y-67842110D01*
X147015845Y-68072000D01*
X148209000Y-68072000D01*
X148209000Y-68052000D01*
X148463000Y-68052000D01*
X148463000Y-68072000D01*
X150749000Y-68072000D01*
X150749000Y-68052000D01*
X151003000Y-68052000D01*
X151003000Y-68072000D01*
X152196155Y-68072000D01*
X152317476Y-67842110D01*
X152272825Y-67694901D01*
X152147641Y-67432080D01*
X151973588Y-67198731D01*
X151889534Y-67122966D01*
X151970180Y-67098502D01*
X152080494Y-67039537D01*
X152177185Y-66960185D01*
X152256537Y-66863494D01*
X152315502Y-66753180D01*
X152351812Y-66633482D01*
X152364072Y-66509000D01*
X152364072Y-64809000D01*
X152351812Y-64684518D01*
X152315502Y-64564820D01*
X152256537Y-64454506D01*
X152177185Y-64357815D01*
X152080494Y-64278463D01*
X151970180Y-64219498D01*
X151850482Y-64183188D01*
X151726000Y-64170928D01*
X150026000Y-64170928D01*
X149901518Y-64183188D01*
X149781820Y-64219498D01*
X149671506Y-64278463D01*
X149574815Y-64357815D01*
X149495463Y-64454506D01*
X149436498Y-64564820D01*
X149414487Y-64637380D01*
X149282632Y-64505525D01*
X149039411Y-64343010D01*
X148769158Y-64231068D01*
X148482260Y-64174000D01*
X148189740Y-64174000D01*
X147902842Y-64231068D01*
X147632589Y-64343010D01*
X147389368Y-64505525D01*
X147182525Y-64712368D01*
X147020010Y-64955589D01*
X146908068Y-65225842D01*
X146851000Y-65512740D01*
X123723000Y-65512740D01*
X123723000Y-64033000D01*
X152502001Y-64033000D01*
X152502000Y-69698000D01*
G37*
%TD.AperFunction*%
%TD*%
M02*
