%TF.GenerationSoftware,KiCad,Pcbnew,(5.1.10)-1*%
%TF.CreationDate,2021-12-27T15:37:09-03:00*%
%TF.ProjectId,pwr_supply,7077725f-7375-4707-906c-792e6b696361,rev?*%
%TF.SameCoordinates,Original*%
%TF.FileFunction,Soldermask,Top*%
%TF.FilePolarity,Negative*%
%FSLAX46Y46*%
G04 Gerber Fmt 4.6, Leading zero omitted, Abs format (unit mm)*
G04 Created by KiCad (PCBNEW (5.1.10)-1) date 2021-12-27 15:37:09*
%MOMM*%
%LPD*%
G01*
G04 APERTURE LIST*
%ADD10C,2.000000*%
%ADD11R,2.000000X2.000000*%
%ADD12C,1.600000*%
%ADD13R,1.600000X1.600000*%
%ADD14O,2.200000X2.200000*%
%ADD15R,2.200000X2.200000*%
%ADD16C,1.800000*%
%ADD17R,1.800000X1.800000*%
%ADD18C,2.600000*%
%ADD19R,2.600000X2.600000*%
%ADD20O,1.700000X1.700000*%
%ADD21R,1.700000X1.700000*%
%ADD22O,1.600000X1.600000*%
%ADD23C,1.900000*%
%ADD24R,1.900000X1.900000*%
%ADD25O,1.905000X2.000000*%
%ADD26R,1.905000X2.000000*%
G04 APERTURE END LIST*
D10*
%TO.C,C1*%
X131365000Y-70485000D03*
D11*
X126365000Y-70485000D03*
%TD*%
D12*
%TO.C,C2*%
X139660000Y-68580000D03*
D13*
X137160000Y-68580000D03*
%TD*%
D14*
%TO.C,D1*%
X136525000Y-96647000D03*
D15*
X126365000Y-96647000D03*
%TD*%
D14*
%TO.C,D2*%
X136525000Y-87249000D03*
D15*
X126365000Y-87249000D03*
%TD*%
%TO.C,D3*%
X126365000Y-101346000D03*
D14*
X136525000Y-101346000D03*
%TD*%
D15*
%TO.C,D4*%
X126365000Y-91948000D03*
D14*
X136525000Y-91948000D03*
%TD*%
D16*
%TO.C,D5*%
X144358000Y-98552000D03*
D17*
X141818000Y-98552000D03*
%TD*%
%TO.C,D6*%
X141818000Y-79375000D03*
D16*
X144358000Y-79375000D03*
%TD*%
D18*
%TO.C,J1*%
X134414000Y-113539000D03*
X131414000Y-108839000D03*
D19*
X137414000Y-108839000D03*
%TD*%
D20*
%TO.C,J2*%
X148336000Y-68199000D03*
X150876000Y-68199000D03*
X148336000Y-65659000D03*
D21*
X150876000Y-65659000D03*
%TD*%
%TO.C,J3*%
X151257000Y-110617000D03*
D20*
X148717000Y-110617000D03*
X151257000Y-113157000D03*
X148717000Y-113157000D03*
%TD*%
D22*
%TO.C,R1*%
X142240000Y-103124000D03*
D12*
X142240000Y-110744000D03*
%TD*%
%TO.C,R2*%
X136906000Y-73406000D03*
D22*
X136906000Y-81026000D03*
%TD*%
D23*
%TO.C,SW1*%
X143093000Y-86440000D03*
X143093000Y-88940000D03*
D24*
X143093000Y-91440000D03*
%TD*%
D25*
%TO.C,U1*%
X131191000Y-80518000D03*
X128651000Y-80518000D03*
D26*
X126111000Y-80518000D03*
%TD*%
M02*
