%TF.GenerationSoftware,KiCad,Pcbnew,(5.1.10)-1*%
%TF.CreationDate,2021-12-27T15:37:09-03:00*%
%TF.ProjectId,pwr_supply,7077725f-7375-4707-906c-792e6b696361,rev?*%
%TF.SameCoordinates,Original*%
%TF.FileFunction,Copper,L1,Top*%
%TF.FilePolarity,Positive*%
%FSLAX46Y46*%
G04 Gerber Fmt 4.6, Leading zero omitted, Abs format (unit mm)*
G04 Created by KiCad (PCBNEW (5.1.10)-1) date 2021-12-27 15:37:09*
%MOMM*%
%LPD*%
G01*
G04 APERTURE LIST*
%TA.AperFunction,ComponentPad*%
%ADD10C,2.000000*%
%TD*%
%TA.AperFunction,ComponentPad*%
%ADD11R,2.000000X2.000000*%
%TD*%
%TA.AperFunction,ComponentPad*%
%ADD12C,1.600000*%
%TD*%
%TA.AperFunction,ComponentPad*%
%ADD13R,1.600000X1.600000*%
%TD*%
%TA.AperFunction,ComponentPad*%
%ADD14O,2.200000X2.200000*%
%TD*%
%TA.AperFunction,ComponentPad*%
%ADD15R,2.200000X2.200000*%
%TD*%
%TA.AperFunction,ComponentPad*%
%ADD16C,1.800000*%
%TD*%
%TA.AperFunction,ComponentPad*%
%ADD17R,1.800000X1.800000*%
%TD*%
%TA.AperFunction,ComponentPad*%
%ADD18C,2.600000*%
%TD*%
%TA.AperFunction,ComponentPad*%
%ADD19R,2.600000X2.600000*%
%TD*%
%TA.AperFunction,ComponentPad*%
%ADD20O,1.700000X1.700000*%
%TD*%
%TA.AperFunction,ComponentPad*%
%ADD21R,1.700000X1.700000*%
%TD*%
%TA.AperFunction,ComponentPad*%
%ADD22O,1.600000X1.600000*%
%TD*%
%TA.AperFunction,ComponentPad*%
%ADD23C,1.900000*%
%TD*%
%TA.AperFunction,ComponentPad*%
%ADD24R,1.900000X1.900000*%
%TD*%
%TA.AperFunction,ComponentPad*%
%ADD25O,1.905000X2.000000*%
%TD*%
%TA.AperFunction,ComponentPad*%
%ADD26R,1.905000X2.000000*%
%TD*%
%TA.AperFunction,Conductor*%
%ADD27C,0.300000*%
%TD*%
%TA.AperFunction,Conductor*%
%ADD28C,0.250000*%
%TD*%
G04 APERTURE END LIST*
D10*
%TO.P,C1,2*%
%TO.N,/GND*%
X131365000Y-70485000D03*
D11*
%TO.P,C1,1*%
%TO.N,/Vin*%
X126365000Y-70485000D03*
%TD*%
D12*
%TO.P,C2,2*%
%TO.N,/GND*%
X139660000Y-68580000D03*
D13*
%TO.P,C2,1*%
%TO.N,/Vout1*%
X137160000Y-68580000D03*
%TD*%
D14*
%TO.P,D1,2*%
%TO.N,Net-(D1-Pad2)*%
X136525000Y-96647000D03*
D15*
%TO.P,D1,1*%
%TO.N,/Vin*%
X126365000Y-96647000D03*
%TD*%
D14*
%TO.P,D2,2*%
%TO.N,/GND*%
X136525000Y-87249000D03*
D15*
%TO.P,D2,1*%
%TO.N,Net-(D1-Pad2)*%
X126365000Y-87249000D03*
%TD*%
%TO.P,D3,1*%
%TO.N,/Vin*%
X126365000Y-101346000D03*
D14*
%TO.P,D3,2*%
%TO.N,Net-(D3-Pad2)*%
X136525000Y-101346000D03*
%TD*%
D15*
%TO.P,D4,1*%
%TO.N,Net-(D3-Pad2)*%
X126365000Y-91948000D03*
D14*
%TO.P,D4,2*%
%TO.N,/GND*%
X136525000Y-91948000D03*
%TD*%
D16*
%TO.P,D5,2*%
%TO.N,Net-(D5-Pad2)*%
X144358000Y-98552000D03*
D17*
%TO.P,D5,1*%
%TO.N,/GND*%
X141818000Y-98552000D03*
%TD*%
%TO.P,D6,1*%
%TO.N,/GND*%
X141818000Y-79375000D03*
D16*
%TO.P,D6,2*%
%TO.N,Net-(D6-Pad2)*%
X144358000Y-79375000D03*
%TD*%
D18*
%TO.P,J1,3*%
%TO.N,Net-(J1-Pad3)*%
X134414000Y-113539000D03*
%TO.P,J1,2*%
%TO.N,Net-(D3-Pad2)*%
X131414000Y-108839000D03*
D19*
%TO.P,J1,1*%
%TO.N,Net-(D1-Pad2)*%
X137414000Y-108839000D03*
%TD*%
D20*
%TO.P,J2,4*%
%TO.N,/GND*%
X148336000Y-68199000D03*
%TO.P,J2,3*%
X150876000Y-68199000D03*
%TO.P,J2,2*%
%TO.N,/Vout2*%
X148336000Y-65659000D03*
D21*
%TO.P,J2,1*%
X150876000Y-65659000D03*
%TD*%
%TO.P,J3,1*%
%TO.N,/Vout2*%
X151257000Y-110617000D03*
D20*
%TO.P,J3,2*%
X148717000Y-110617000D03*
%TO.P,J3,3*%
%TO.N,/GND*%
X151257000Y-113157000D03*
%TO.P,J3,4*%
X148717000Y-113157000D03*
%TD*%
D22*
%TO.P,R1,2*%
%TO.N,Net-(D5-Pad2)*%
X142240000Y-103124000D03*
D12*
%TO.P,R1,1*%
%TO.N,/Vout1*%
X142240000Y-110744000D03*
%TD*%
%TO.P,R2,1*%
%TO.N,/Vout2*%
X136906000Y-73406000D03*
D22*
%TO.P,R2,2*%
%TO.N,Net-(D6-Pad2)*%
X136906000Y-81026000D03*
%TD*%
D23*
%TO.P,SW1,3*%
%TO.N,Net-(SW1-Pad3)*%
X143093000Y-86440000D03*
%TO.P,SW1,2*%
%TO.N,/Vout1*%
X143093000Y-88940000D03*
D24*
%TO.P,SW1,1*%
%TO.N,/Vout2*%
X143093000Y-91440000D03*
%TD*%
D25*
%TO.P,U1,3*%
%TO.N,/Vout1*%
X131191000Y-80518000D03*
%TO.P,U1,2*%
%TO.N,/GND*%
X128651000Y-80518000D03*
D26*
%TO.P,U1,1*%
%TO.N,/Vin*%
X126111000Y-80518000D03*
%TD*%
D27*
%TO.N,/Vin*%
X126365000Y-80264000D02*
X126111000Y-80518000D01*
X126365000Y-70485000D02*
X126365000Y-80264000D01*
X124914999Y-93545999D02*
X126365000Y-94996000D01*
X124914999Y-81714001D02*
X124914999Y-93545999D01*
X126111000Y-80518000D02*
X124914999Y-81714001D01*
X126365000Y-96647000D02*
X126365000Y-94996000D01*
X126365000Y-101346000D02*
X126365000Y-96647000D01*
%TO.N,/Vout1*%
X137160000Y-68580000D02*
X137160000Y-70231000D01*
X131191000Y-76200000D02*
X131191000Y-80518000D01*
X137160000Y-70231000D02*
X131191000Y-76200000D01*
X140567999Y-91465001D02*
X143093000Y-88940000D01*
X140567999Y-109071999D02*
X140567999Y-91465001D01*
X142240000Y-110744000D02*
X140567999Y-109071999D01*
X141733826Y-88940000D02*
X143093000Y-88940000D01*
X136138818Y-83344992D02*
X141733826Y-88940000D01*
X134017992Y-83344992D02*
X136138818Y-83344992D01*
X131191000Y-80518000D02*
X134017992Y-83344992D01*
%TO.N,Net-(D1-Pad2)*%
X127127000Y-87249000D02*
X136525000Y-96647000D01*
X126365000Y-87249000D02*
X127127000Y-87249000D01*
X137414000Y-108839000D02*
X139192000Y-108839000D01*
X139192000Y-99314000D02*
X136525000Y-96647000D01*
X139192000Y-108839000D02*
X139192000Y-99314000D01*
%TO.N,Net-(D3-Pad2)*%
X127127000Y-91948000D02*
X136525000Y-101346000D01*
X126365000Y-91948000D02*
X127127000Y-91948000D01*
X136525000Y-103728000D02*
X131414000Y-108839000D01*
X136525000Y-101346000D02*
X136525000Y-103728000D01*
D28*
%TO.N,Net-(D5-Pad2)*%
X142240000Y-100670000D02*
X144358000Y-98552000D01*
X142240000Y-103124000D02*
X142240000Y-100670000D01*
%TO.N,Net-(D6-Pad2)*%
X136906000Y-81026000D02*
X136906000Y-82804000D01*
X140929000Y-82804000D02*
X144358000Y-79375000D01*
X136906000Y-82804000D02*
X140929000Y-82804000D01*
D27*
%TO.N,/Vout2*%
X151257000Y-110617000D02*
X148717000Y-110617000D01*
X136906000Y-73406000D02*
X140906500Y-73406000D01*
X146177000Y-88356000D02*
X143093000Y-91440000D01*
X146177000Y-75311000D02*
X146177000Y-88356000D01*
X144272000Y-73406000D02*
X146177000Y-75311000D01*
X140906500Y-73406000D02*
X144272000Y-73406000D01*
X150876000Y-65659000D02*
X148336000Y-65659000D01*
X144272000Y-69723000D02*
X144272000Y-73406000D01*
X148336000Y-65659000D02*
X144272000Y-69723000D01*
X148463000Y-110617000D02*
X151257000Y-110617000D01*
X146304000Y-108458000D02*
X148463000Y-110617000D01*
X146304000Y-94742000D02*
X146304000Y-108458000D01*
X143093000Y-91531000D02*
X146304000Y-94742000D01*
X143093000Y-91440000D02*
X143093000Y-91531000D01*
%TD*%
M02*
