M48
; DRILL file {KiCad (5.1.10)-1} date 12/27/21 15:37:46
; FORMAT={-:-/ absolute / inch / decimal}
; #@! TF.CreationDate,2021-12-27T15:37:46-03:00
; #@! TF.GenerationSoftware,Kicad,Pcbnew,(5.1.10)-1
; #@! TF.FileFunction,Plated,1,2,PTH
FMAT,2
INCH
T1C0.0315
T2C0.0354
T3C0.0394
T4C0.0433
T5C0.0630
%
G90
G05
T1
X5.39Y-2.89
X5.39Y-3.19
X5.4Y-2.7
X5.4984Y-2.7
X5.6Y-4.06
X5.6Y-4.36
T2
X5.5834Y-3.125
X5.5834Y-3.88
X5.6336Y-3.4031
X5.6336Y-3.5016
X5.6336Y-3.6
X5.6834Y-3.125
X5.6834Y-3.88
T3
X4.975Y-2.775
X5.1719Y-2.775
X5.84Y-2.585
X5.84Y-2.685
X5.855Y-4.355
X5.855Y-4.455
X5.94Y-2.585
X5.94Y-2.685
X5.955Y-4.355
X5.955Y-4.455
T4
X4.965Y-3.17
X4.975Y-3.435
X4.975Y-3.62
X4.975Y-3.805
X4.975Y-3.99
X5.065Y-3.17
X5.165Y-3.17
X5.375Y-3.435
X5.375Y-3.62
X5.375Y-3.805
X5.375Y-3.99
T5
X5.1738Y-4.285
X5.2919Y-4.47
X5.41Y-4.285
T0
M30
